<svg width="1026" height="256" viewBox="0 0 1026 256" fill="none" xmlns="http://www.w3.org/2000/svg">
<rect width="205" height="3" transform="translate(202 177)" fill="#313131"/>
<rect width="205" height="3" transform="matrix(-1 0 0 1 825 59)" fill="#313131"/>
<rect width="245" height="3" transform="matrix(-1 0 0 1 883 117)" fill="#313131"/>
<rect width="205" height="3" transform="matrix(-1 0 0 1 824 178)" fill="#313131"/>
<path d="M825 80H965.989C965.457 56.7137 946.414 38 923 38H825V80Z" fill="black"/>
<path d="M873.88 62.464H873.768C873.672 62.688 873.555 62.9067 873.416 63.12C873.288 63.3227 873.123 63.504 872.92 63.664C872.728 63.824 872.493 63.952 872.216 64.048C871.939 64.144 871.619 64.192 871.256 64.192C870.093 64.192 869.219 63.696 868.632 62.704C868.045 61.712 867.752 60.3093 867.752 58.496C867.752 56.5973 868.088 55.1467 868.76 54.144C869.432 53.1413 870.461 52.64 871.848 52.64C872.392 52.64 872.867 52.7147 873.272 52.864C873.688 53.0133 874.04 53.216 874.328 53.472C874.616 53.7173 874.856 54.0107 875.048 54.352C875.24 54.6827 875.395 55.0347 875.512 55.408L873.896 55.952C873.811 55.7067 873.715 55.4773 873.608 55.264C873.501 55.04 873.368 54.8427 873.208 54.672C873.059 54.5013 872.872 54.368 872.648 54.272C872.435 54.176 872.173 54.128 871.864 54.128C871.085 54.128 870.52 54.432 870.168 55.04C869.827 55.6373 869.656 56.448 869.656 57.472V59.248C869.656 59.76 869.693 60.2293 869.768 60.656C869.843 61.0827 869.965 61.4507 870.136 61.76C870.317 62.0587 870.547 62.2933 870.824 62.464C871.112 62.6347 871.459 62.72 871.864 62.72C872.515 62.72 873.011 62.528 873.352 62.144C873.704 61.7493 873.88 61.248 873.88 60.64V59.632H871.72V58.288H875.512V64H873.88V62.464ZM884.466 64C883.964 64 883.586 63.872 883.33 63.616C883.084 63.36 882.935 63.024 882.882 62.608H882.802C882.642 63.1093 882.348 63.4987 881.922 63.776C881.506 64.0533 880.972 64.192 880.322 64.192C879.479 64.192 878.807 63.9733 878.306 63.536C877.804 63.088 877.554 62.4747 877.554 61.696C877.554 60.896 877.847 60.288 878.434 59.872C879.031 59.4453 879.943 59.232 881.17 59.232H882.754V58.592C882.754 57.472 882.162 56.912 880.978 56.912C880.444 56.912 880.012 57.0187 879.682 57.232C879.351 57.4347 879.074 57.7067 878.85 58.048L877.81 57.2C878.044 56.752 878.439 56.368 878.994 56.048C879.548 55.7173 880.263 55.552 881.138 55.552C882.183 55.552 883.004 55.8027 883.602 56.304C884.199 56.8053 884.498 57.5307 884.498 58.48V62.624H885.538V64H884.466ZM880.818 62.912C881.383 62.912 881.847 62.784 882.21 62.528C882.572 62.272 882.754 61.9413 882.754 61.536V60.336H881.202C879.943 60.336 879.314 60.7147 879.314 61.472V61.792C879.314 62.1653 879.447 62.448 879.714 62.64C879.98 62.8213 880.348 62.912 880.818 62.912ZM886.892 64V55.744H888.38V56.816H888.46C888.588 56.464 888.769 56.1653 889.004 55.92C889.249 55.6747 889.596 55.552 890.044 55.552C890.481 55.552 890.817 55.6747 891.052 55.92C891.297 56.1547 891.452 56.48 891.516 56.896H891.58C891.729 56.5227 891.937 56.208 892.204 55.952C892.47 55.6853 892.854 55.552 893.356 55.552C893.996 55.552 894.438 55.776 894.684 56.224C894.94 56.672 895.068 57.328 895.068 58.192V64H893.58V58.416C893.58 57.84 893.51 57.4453 893.372 57.232C893.233 57.008 893.009 56.896 892.7 56.896C892.422 56.896 892.188 56.992 891.996 57.184C891.814 57.3653 891.724 57.6427 891.724 58.016V64H890.236V58.416C890.236 57.84 890.166 57.4453 890.028 57.232C889.9 57.008 889.681 56.896 889.372 56.896C889.084 56.896 888.844 56.992 888.652 57.184C888.47 57.3653 888.38 57.6427 888.38 58.016V64H886.892ZM900.757 64.192C900.128 64.192 899.563 64.0907 899.061 63.888C898.56 63.6853 898.139 63.3973 897.797 63.024C897.456 62.6507 897.195 62.2027 897.013 61.68C896.832 61.1467 896.741 60.5493 896.741 59.888C896.741 59.2267 896.832 58.6293 897.013 58.096C897.205 57.5627 897.467 57.1093 897.797 56.736C898.139 56.352 898.549 56.0587 899.029 55.856C899.509 55.6533 900.043 55.552 900.629 55.552C901.205 55.552 901.728 55.6533 902.197 55.856C902.667 56.048 903.067 56.3253 903.397 56.688C903.728 57.0507 903.979 57.4827 904.149 57.984C904.331 58.4853 904.421 59.04 904.421 59.648V60.304H898.501V60.576C898.501 61.2267 898.704 61.76 899.109 62.176C899.515 62.5813 900.075 62.784 900.789 62.784C901.323 62.784 901.776 62.672 902.149 62.448C902.533 62.2133 902.843 61.904 903.077 61.52L904.165 62.48C903.888 62.96 903.461 63.3653 902.885 63.696C902.32 64.0267 901.611 64.192 900.757 64.192ZM900.629 56.88C900.32 56.88 900.032 56.9333 899.765 57.04C899.509 57.1467 899.285 57.3013 899.093 57.504C898.912 57.696 898.768 57.9253 898.661 58.192C898.555 58.4587 898.501 58.752 898.501 59.072V59.184H902.645V59.024C902.645 58.3733 902.459 57.856 902.085 57.472C901.723 57.0773 901.237 56.88 900.629 56.88ZM910.191 64.192C909.295 64.192 908.522 64.048 907.871 63.76C907.231 63.472 906.714 63.088 906.319 62.608L907.391 61.648C907.754 62.0427 908.159 62.3467 908.607 62.56C909.066 62.7627 909.604 62.864 910.223 62.864C910.788 62.864 911.242 62.768 911.583 62.576C911.935 62.384 912.111 62.0853 912.111 61.68C912.111 61.5093 912.079 61.3653 912.015 61.248C911.951 61.1307 911.86 61.0347 911.743 60.96C911.626 60.8853 911.487 60.8267 911.327 60.784C911.178 60.7413 911.018 60.7093 910.847 60.688L909.535 60.48C909.215 60.4373 908.89 60.368 908.559 60.272C908.228 60.176 907.93 60.0427 907.663 59.872C907.407 59.6907 907.194 59.4613 907.023 59.184C906.863 58.9067 906.783 58.5547 906.783 58.128C906.783 57.2853 907.103 56.6453 907.743 56.208C908.394 55.7707 909.247 55.552 910.303 55.552C911.071 55.552 911.732 55.6693 912.287 55.904C912.852 56.128 913.322 56.4427 913.695 56.848L912.719 57.872C912.506 57.6267 912.202 57.4027 911.807 57.2C911.412 56.9867 910.89 56.88 910.239 56.88C909.076 56.88 908.495 57.248 908.495 57.984C908.495 58.336 908.618 58.5813 908.863 58.72C909.119 58.848 909.418 58.9333 909.759 58.976L911.071 59.184C911.402 59.2373 911.727 59.3067 912.047 59.392C912.378 59.4773 912.671 59.6107 912.927 59.792C913.194 59.9627 913.407 60.1867 913.567 60.464C913.738 60.7413 913.823 61.0933 913.823 61.52C913.823 62.352 913.498 63.008 912.847 63.488C912.207 63.9573 911.322 64.192 910.191 64.192Z" fill="#EBEBEB"/>
<path d="M825 80H965.989C965.457 56.7137 946.414 38 923 38H825V80Z" stroke="#EBEBEB" stroke-width="2"/>
<path d="M1025 97H884V139H1025V97Z" fill="black"/>
<path d="M898.328 111.832H902.184C903.197 111.832 903.981 112.093 904.536 112.616C905.101 113.139 905.384 113.853 905.384 114.76C905.384 115.411 905.224 115.928 904.904 116.312C904.584 116.696 904.152 116.968 903.608 117.128V117.208C904.259 117.357 904.781 117.645 905.176 118.072C905.571 118.488 905.768 119.08 905.768 119.848C905.768 120.307 905.693 120.728 905.544 121.112C905.395 121.496 905.181 121.832 904.904 122.12C904.627 122.397 904.291 122.616 903.896 122.776C903.512 122.925 903.085 123 902.616 123H898.328V111.832ZM902.072 121.624C902.669 121.624 903.128 121.501 903.448 121.256C903.768 121.011 903.928 120.616 903.928 120.072V119.496C903.928 118.952 903.768 118.557 903.448 118.312C903.128 118.067 902.669 117.944 902.072 117.944H900.088V121.624H902.072ZM901.816 116.632C902.381 116.632 902.808 116.525 903.096 116.312C903.395 116.088 903.544 115.72 903.544 115.208V114.632C903.544 114.12 903.395 113.757 903.096 113.544C902.808 113.32 902.381 113.208 901.816 113.208H900.088V116.632H901.816ZM907.81 121.592H910.002V116.152H907.81V114.744H911.746V116.936H911.842C911.916 116.648 912.023 116.371 912.162 116.104C912.3 115.837 912.476 115.608 912.69 115.416C912.903 115.213 913.164 115.053 913.474 114.936C913.783 114.808 914.146 114.744 914.562 114.744H915.554V116.408H913.922C913.282 116.408 912.759 116.6 912.354 116.984C911.948 117.357 911.746 117.864 911.746 118.504V121.592H914.738V123H907.81V121.592ZM924.06 123C923.558 123 923.18 122.872 922.924 122.616C922.678 122.36 922.529 122.024 922.476 121.608H922.396C922.236 122.109 921.942 122.499 921.516 122.776C921.1 123.053 920.566 123.192 919.916 123.192C919.073 123.192 918.401 122.973 917.9 122.536C917.398 122.088 917.148 121.475 917.148 120.696C917.148 119.896 917.441 119.288 918.028 118.872C918.625 118.445 919.537 118.232 920.764 118.232H922.348V117.592C922.348 116.472 921.756 115.912 920.572 115.912C920.038 115.912 919.606 116.019 919.276 116.232C918.945 116.435 918.668 116.707 918.444 117.048L917.404 116.2C917.638 115.752 918.033 115.368 918.588 115.048C919.142 114.717 919.857 114.552 920.732 114.552C921.777 114.552 922.598 114.803 923.196 115.304C923.793 115.805 924.092 116.531 924.092 117.48V121.624H925.132V123H924.06ZM920.411 121.912C920.977 121.912 921.441 121.784 921.804 121.528C922.166 121.272 922.348 120.941 922.348 120.536V119.336H920.796C919.537 119.336 918.908 119.715 918.908 120.472V120.792C918.908 121.165 919.041 121.448 919.308 121.64C919.574 121.821 919.942 121.912 920.411 121.912ZM931.093 113.24C930.645 113.24 930.331 113.149 930.149 112.968C929.979 112.787 929.893 112.563 929.893 112.296V111.96C929.893 111.693 929.979 111.469 930.149 111.288C930.331 111.107 930.64 111.016 931.077 111.016C931.525 111.016 931.835 111.107 932.005 111.288C932.187 111.469 932.277 111.693 932.277 111.96V112.296C932.277 112.563 932.187 112.787 932.005 112.968C931.835 113.149 931.531 113.24 931.093 113.24ZM927.397 121.592H930.213V116.152H927.397V114.744H931.957V121.592H934.597V123H927.397V121.592ZM936.719 123V114.744H938.463V116.152H938.543C938.628 115.939 938.735 115.736 938.863 115.544C939.002 115.341 939.167 115.171 939.359 115.032C939.551 114.883 939.775 114.765 940.031 114.68C940.287 114.595 940.586 114.552 940.927 114.552C941.759 114.552 942.431 114.824 942.943 115.368C943.455 115.912 943.711 116.685 943.711 117.688V123H941.967V117.944C941.967 116.632 941.396 115.976 940.255 115.976C940.031 115.976 939.812 116.008 939.599 116.072C939.386 116.125 939.194 116.211 939.023 116.328C938.852 116.445 938.714 116.595 938.607 116.776C938.511 116.957 938.463 117.165 938.463 117.4V123H936.719ZM950.665 113.336V123H948.873V113.336H945.369V111.832H954.169V113.336H950.665ZM959.539 123.192C958.909 123.192 958.344 123.091 957.843 122.888C957.341 122.685 956.92 122.397 956.579 122.024C956.237 121.651 955.976 121.203 955.795 120.68C955.613 120.147 955.523 119.549 955.523 118.888C955.523 118.227 955.613 117.629 955.795 117.096C955.987 116.563 956.248 116.109 956.579 115.736C956.92 115.352 957.331 115.059 957.811 114.856C958.291 114.653 958.824 114.552 959.411 114.552C959.987 114.552 960.509 114.653 960.979 114.856C961.448 115.048 961.848 115.325 962.179 115.688C962.509 116.051 962.76 116.483 962.931 116.984C963.112 117.485 963.203 118.04 963.203 118.648V119.304H957.283V119.576C957.283 120.227 957.485 120.76 957.891 121.176C958.296 121.581 958.856 121.784 959.571 121.784C960.104 121.784 960.557 121.672 960.931 121.448C961.315 121.213 961.624 120.904 961.859 120.52L962.947 121.48C962.669 121.96 962.243 122.365 961.667 122.696C961.101 123.027 960.392 123.192 959.539 123.192ZM959.411 115.88C959.101 115.88 958.813 115.933 958.547 116.04C958.291 116.147 958.067 116.301 957.875 116.504C957.693 116.696 957.549 116.925 957.443 117.192C957.336 117.459 957.283 117.752 957.283 118.072V118.184H961.427V118.024C961.427 117.373 961.24 116.856 960.867 116.472C960.504 116.077 960.019 115.88 959.411 115.88ZM972.028 123C971.527 123 971.148 122.872 970.892 122.616C970.647 122.36 970.498 122.024 970.444 121.608H970.364C970.204 122.109 969.911 122.499 969.484 122.776C969.068 123.053 968.535 123.192 967.884 123.192C967.042 123.192 966.37 122.973 965.868 122.536C965.367 122.088 965.116 121.475 965.116 120.696C965.116 119.896 965.41 119.288 965.996 118.872C966.594 118.445 967.506 118.232 968.732 118.232H970.316V117.592C970.316 116.472 969.724 115.912 968.54 115.912C968.007 115.912 967.575 116.019 967.244 116.232C966.914 116.435 966.636 116.707 966.412 117.048L965.372 116.2C965.607 115.752 966.002 115.368 966.556 115.048C967.111 114.717 967.826 114.552 968.7 114.552C969.746 114.552 970.567 114.803 971.164 115.304C971.762 115.805 972.06 116.531 972.06 117.48V121.624H973.1V123H972.028ZM968.38 121.912C968.946 121.912 969.41 121.784 969.772 121.528C970.135 121.272 970.316 120.941 970.316 120.536V119.336H968.764C967.506 119.336 966.876 119.715 966.876 120.472V120.792C966.876 121.165 967.01 121.448 967.276 121.64C967.543 121.821 967.911 121.912 968.38 121.912ZM978.566 123.192C977.67 123.192 976.897 123.048 976.246 122.76C975.606 122.472 975.089 122.088 974.694 121.608L975.766 120.648C976.129 121.043 976.534 121.347 976.982 121.56C977.441 121.763 977.979 121.864 978.598 121.864C979.163 121.864 979.617 121.768 979.958 121.576C980.31 121.384 980.486 121.085 980.486 120.68C980.486 120.509 980.454 120.365 980.39 120.248C980.326 120.131 980.235 120.035 980.118 119.96C980.001 119.885 979.862 119.827 979.702 119.784C979.553 119.741 979.393 119.709 979.222 119.688L977.91 119.48C977.59 119.437 977.265 119.368 976.934 119.272C976.603 119.176 976.305 119.043 976.038 118.872C975.782 118.691 975.569 118.461 975.398 118.184C975.238 117.907 975.158 117.555 975.158 117.128C975.158 116.285 975.478 115.645 976.118 115.208C976.769 114.771 977.622 114.552 978.678 114.552C979.446 114.552 980.107 114.669 980.662 114.904C981.227 115.128 981.697 115.443 982.07 115.848L981.094 116.872C980.881 116.627 980.577 116.403 980.182 116.2C979.787 115.987 979.265 115.88 978.614 115.88C977.451 115.88 976.87 116.248 976.87 116.984C976.87 117.336 976.993 117.581 977.238 117.72C977.494 117.848 977.793 117.933 978.134 117.976L979.446 118.184C979.777 118.237 980.102 118.307 980.422 118.392C980.753 118.477 981.046 118.611 981.302 118.792C981.569 118.963 981.782 119.187 981.942 119.464C982.113 119.741 982.198 120.093 982.198 120.52C982.198 121.352 981.873 122.008 981.222 122.488C980.582 122.957 979.697 123.192 978.566 123.192ZM988.32 123.192C987.69 123.192 987.125 123.091 986.624 122.888C986.122 122.685 985.701 122.397 985.36 122.024C985.018 121.651 984.757 121.203 984.576 120.68C984.394 120.147 984.304 119.549 984.304 118.888C984.304 118.227 984.394 117.629 984.576 117.096C984.768 116.563 985.029 116.109 985.36 115.736C985.701 115.352 986.112 115.059 986.592 114.856C987.072 114.653 987.605 114.552 988.192 114.552C988.768 114.552 989.29 114.653 989.76 114.856C990.229 115.048 990.629 115.325 990.96 115.688C991.29 116.051 991.541 116.483 991.712 116.984C991.893 117.485 991.984 118.04 991.984 118.648V119.304H986.064V119.576C986.064 120.227 986.266 120.76 986.672 121.176C987.077 121.581 987.637 121.784 988.352 121.784C988.885 121.784 989.338 121.672 989.712 121.448C990.096 121.213 990.405 120.904 990.64 120.52L991.728 121.48C991.45 121.96 991.024 122.365 990.448 122.696C989.882 123.027 989.173 123.192 988.32 123.192ZM988.192 115.88C987.882 115.88 987.594 115.933 987.328 116.04C987.072 116.147 986.848 116.301 986.656 116.504C986.474 116.696 986.33 116.925 986.224 117.192C986.117 117.459 986.064 117.752 986.064 118.072V118.184H990.208V118.024C990.208 117.373 990.021 116.856 989.648 116.472C989.285 116.077 988.8 115.88 988.192 115.88ZM994.154 121.592H996.346V116.152H994.154V114.744H998.09V116.936H998.186C998.26 116.648 998.367 116.371 998.506 116.104C998.644 115.837 998.82 115.608 999.034 115.416C999.247 115.213 999.508 115.053 999.818 114.936C1000.13 114.808 1000.49 114.744 1000.91 114.744H1001.9V116.408H1000.27C999.626 116.408 999.103 116.6 998.698 116.984C998.292 117.357 998.09 117.864 998.09 118.504V121.592H1001.08V123H994.154V121.592ZM1007.35 123.192C1006.45 123.192 1005.68 123.048 1005.03 122.76C1004.39 122.472 1003.87 122.088 1003.48 121.608L1004.55 120.648C1004.91 121.043 1005.32 121.347 1005.76 121.56C1006.22 121.763 1006.76 121.864 1007.38 121.864C1007.94 121.864 1008.4 121.768 1008.74 121.576C1009.09 121.384 1009.27 121.085 1009.27 120.68C1009.27 120.509 1009.24 120.365 1009.17 120.248C1009.11 120.131 1009.02 120.035 1008.9 119.96C1008.78 119.885 1008.64 119.827 1008.48 119.784C1008.33 119.741 1008.17 119.709 1008 119.688L1006.69 119.48C1006.37 119.437 1006.05 119.368 1005.72 119.272C1005.38 119.176 1005.09 119.043 1004.82 118.872C1004.56 118.691 1004.35 118.461 1004.18 118.184C1004.02 117.907 1003.94 117.555 1003.94 117.128C1003.94 116.285 1004.26 115.645 1004.9 115.208C1005.55 114.771 1006.4 114.552 1007.46 114.552C1008.23 114.552 1008.89 114.669 1009.44 114.904C1010.01 115.128 1010.48 115.443 1010.85 115.848L1009.88 116.872C1009.66 116.627 1009.36 116.403 1008.96 116.2C1008.57 115.987 1008.05 115.88 1007.4 115.88C1006.23 115.88 1005.65 116.248 1005.65 116.984C1005.65 117.336 1005.77 117.581 1006.02 117.72C1006.28 117.848 1006.57 117.933 1006.92 117.976L1008.23 118.184C1008.56 118.237 1008.88 118.307 1009.2 118.392C1009.53 118.477 1009.83 118.611 1010.08 118.792C1010.35 118.963 1010.56 119.187 1010.72 119.464C1010.89 119.741 1010.98 120.093 1010.98 120.52C1010.98 121.352 1010.65 122.008 1010 122.488C1009.36 122.957 1008.48 123.192 1007.35 123.192Z" fill="#EBEBEB"/>
<path d="M1025 97H884V139H1025V97Z" stroke="#EBEBEB" stroke-width="2"/>
<path d="M825 158H965.989C965.457 181.286 946.414 200 923 200H825V158Z" fill="black"/>
<path d="M849.392 184L848.544 181.024H844.992L844.144 184H842.32L845.584 172.832H848.032L851.296 184H849.392ZM846.832 174.64H846.704L845.328 179.536H848.208L846.832 174.64ZM852.938 184V175.744H854.682V177.152H854.762C854.847 176.939 854.954 176.736 855.082 176.544C855.22 176.341 855.386 176.171 855.578 176.032C855.77 175.883 855.994 175.765 856.25 175.68C856.506 175.595 856.804 175.552 857.146 175.552C857.978 175.552 858.65 175.824 859.162 176.368C859.674 176.912 859.93 177.685 859.93 178.688V184H858.186V178.944C858.186 177.632 857.615 176.976 856.474 176.976C856.25 176.976 856.031 177.008 855.818 177.072C855.604 177.125 855.412 177.211 855.242 177.328C855.071 177.445 854.932 177.595 854.826 177.776C854.73 177.957 854.682 178.165 854.682 178.4V184H852.938ZM867.78 182.592H867.684C867.438 183.093 867.113 183.488 866.708 183.776C866.302 184.053 865.796 184.192 865.188 184.192C864.217 184.192 863.444 183.829 862.868 183.104C862.292 182.379 862.004 181.301 862.004 179.872C862.004 178.443 862.292 177.365 862.868 176.64C863.444 175.915 864.217 175.552 865.188 175.552C865.796 175.552 866.302 175.696 866.708 175.984C867.113 176.261 867.438 176.651 867.684 177.152H867.78V172.16H869.524V184H867.78V182.592ZM865.908 182.768C866.164 182.768 866.404 182.736 866.628 182.672C866.852 182.608 867.049 182.512 867.22 182.384C867.39 182.256 867.524 182.101 867.62 181.92C867.726 181.728 867.78 181.504 867.78 181.248V178.496C867.78 178.24 867.726 178.021 867.62 177.84C867.524 177.648 867.39 177.488 867.22 177.36C867.049 177.232 866.852 177.136 866.628 177.072C866.404 177.008 866.164 176.976 865.908 176.976C865.246 176.976 864.734 177.179 864.372 177.584C864.02 177.989 863.844 178.528 863.844 179.2V180.544C863.844 181.216 864.02 181.755 864.372 182.16C864.734 182.565 865.246 182.768 865.908 182.768ZM887.495 178.656L887.543 175.296H887.415L885.175 181.04L882.935 175.296H882.807L882.855 178.656V184H881.271V172.832H883.463L885.175 177.264H885.287L887.015 172.832H889.079V184H887.495V178.656ZM894.769 184.192C894.161 184.192 893.611 184.091 893.121 183.888C892.641 183.685 892.23 183.397 891.889 183.024C891.558 182.651 891.302 182.197 891.121 181.664C890.939 181.131 890.849 180.533 890.849 179.872C890.849 179.211 890.939 178.613 891.121 178.08C891.302 177.547 891.558 177.093 891.889 176.72C892.23 176.347 892.641 176.059 893.121 175.856C893.611 175.653 894.161 175.552 894.769 175.552C895.377 175.552 895.921 175.653 896.401 175.856C896.891 176.059 897.302 176.347 897.633 176.72C897.974 177.093 898.235 177.547 898.417 178.08C898.598 178.613 898.689 179.211 898.689 179.872C898.689 180.533 898.598 181.131 898.417 181.664C898.235 182.197 897.974 182.651 897.633 183.024C897.302 183.397 896.891 183.685 896.401 183.888C895.921 184.091 895.377 184.192 894.769 184.192ZM894.769 182.816C895.409 182.816 895.915 182.624 896.289 182.24C896.673 181.845 896.865 181.264 896.865 180.496V179.248C896.865 178.48 896.673 177.904 896.289 177.52C895.915 177.125 895.409 176.928 894.769 176.928C894.129 176.928 893.617 177.125 893.233 177.52C892.859 177.904 892.673 178.48 892.673 179.248V180.496C892.673 181.264 892.859 181.845 893.233 182.24C893.617 182.624 894.129 182.816 894.769 182.816ZM900.779 182.592H902.971V177.152H900.779V175.744H904.715V177.936H904.811C904.885 177.648 904.992 177.371 905.131 177.104C905.269 176.837 905.445 176.608 905.659 176.416C905.872 176.213 906.133 176.053 906.443 175.936C906.752 175.808 907.115 175.744 907.531 175.744H908.523V177.408H906.891C906.251 177.408 905.728 177.6 905.323 177.984C904.917 178.357 904.715 178.864 904.715 179.504V182.592H907.707V184H900.779V182.592ZM914.132 184.192C913.503 184.192 912.938 184.091 912.436 183.888C911.935 183.685 911.514 183.397 911.172 183.024C910.831 182.651 910.57 182.203 910.388 181.68C910.207 181.147 910.116 180.549 910.116 179.888C910.116 179.227 910.207 178.629 910.388 178.096C910.58 177.563 910.842 177.109 911.172 176.736C911.514 176.352 911.924 176.059 912.404 175.856C912.884 175.653 913.418 175.552 914.004 175.552C914.58 175.552 915.103 175.653 915.572 175.856C916.042 176.048 916.442 176.325 916.772 176.688C917.103 177.051 917.354 177.483 917.524 177.984C917.706 178.485 917.796 179.04 917.796 179.648V180.304H911.876V180.576C911.876 181.227 912.079 181.76 912.484 182.176C912.89 182.581 913.45 182.784 914.164 182.784C914.698 182.784 915.151 182.672 915.524 182.448C915.908 182.213 916.218 181.904 916.452 181.52L917.54 182.48C917.263 182.96 916.836 183.365 916.26 183.696C915.695 184.027 914.986 184.192 914.132 184.192ZM914.004 176.88C913.695 176.88 913.407 176.933 913.14 177.04C912.884 177.147 912.66 177.301 912.468 177.504C912.287 177.696 912.143 177.925 912.036 178.192C911.93 178.459 911.876 178.752 911.876 179.072V179.184H916.02V179.024C916.02 178.373 915.834 177.856 915.46 177.472C915.098 177.077 914.612 176.88 914.004 176.88ZM923.55 184.16C923.038 184.16 922.675 184.053 922.462 183.84C922.259 183.627 922.158 183.365 922.158 183.056V182.64C922.158 182.331 922.259 182.069 922.462 181.856C922.675 181.643 923.038 181.536 923.55 181.536C924.062 181.536 924.419 181.643 924.622 181.856C924.835 182.069 924.942 182.331 924.942 182.64V183.056C924.942 183.365 924.835 183.627 924.622 183.84C924.419 184.053 924.062 184.16 923.55 184.16ZM933.144 184.16C932.632 184.16 932.269 184.053 932.056 183.84C931.853 183.627 931.752 183.365 931.752 183.056V182.64C931.752 182.331 931.853 182.069 932.056 181.856C932.269 181.643 932.632 181.536 933.144 181.536C933.656 181.536 934.013 181.643 934.216 181.856C934.429 182.069 934.536 182.331 934.536 182.64V183.056C934.536 183.365 934.429 183.627 934.216 183.84C934.013 184.053 933.656 184.16 933.144 184.16Z" fill="#EBEBEB"/>
<path d="M825 158H965.989C965.457 181.286 946.414 200 923 200H825V158Z" stroke="#EBEBEB" stroke-width="2"/>
<rect x="386.5" y="1.5" width="253" height="253" rx="126.5" fill="black"/>
<rect x="386.5" y="1.5" width="253" height="253" rx="126.5" stroke="#EBEBEB" stroke-width="3"/>
<rect width="205" height="3" transform="translate(201 58)" fill="#313131"/>
<rect width="245" height="3" transform="translate(143 116)" fill="#313131"/>
<path d="M201 79H60.0114C60.5428 55.7137 79.586 37 103 37H201V79Z" fill="black"/>
<path d="M113.312 52.832H116.64C118.069 52.832 119.125 53.3067 119.808 54.256C120.501 55.2053 120.848 56.592 120.848 58.416C120.848 60.24 120.501 61.6267 119.808 62.576C119.125 63.5253 118.069 64 116.64 64H113.312V52.832ZM116.528 62.528C117.349 62.528 117.957 62.256 118.352 61.712C118.757 61.1573 118.96 60.368 118.96 59.344V57.488C118.96 56.464 118.757 55.68 118.352 55.136C117.957 54.5813 117.349 54.304 116.528 54.304H115.088V62.528H116.528ZM129.466 64C128.964 64 128.586 63.872 128.33 63.616C128.084 63.36 127.935 63.024 127.882 62.608H127.802C127.642 63.1093 127.348 63.4987 126.922 63.776C126.506 64.0533 125.972 64.192 125.322 64.192C124.479 64.192 123.807 63.9733 123.306 63.536C122.804 63.088 122.554 62.4747 122.554 61.696C122.554 60.896 122.847 60.288 123.434 59.872C124.031 59.4453 124.943 59.232 126.17 59.232H127.754V58.592C127.754 57.472 127.162 56.912 125.978 56.912C125.444 56.912 125.012 57.0187 124.682 57.232C124.351 57.4347 124.074 57.7067 123.85 58.048L122.81 57.2C123.044 56.752 123.439 56.368 123.994 56.048C124.548 55.7173 125.263 55.552 126.138 55.552C127.183 55.552 128.004 55.8027 128.602 56.304C129.199 56.8053 129.498 57.5307 129.498 58.48V62.624H130.538V64H129.466ZM125.818 62.912C126.383 62.912 126.847 62.784 127.21 62.528C127.572 62.272 127.754 61.9413 127.754 61.536V60.336H126.202C124.943 60.336 124.314 60.7147 124.314 61.472V61.792C124.314 62.1653 124.447 62.448 124.714 62.64C124.98 62.8213 125.348 62.912 125.818 62.912ZM132.532 64V55.744H134.276V57.152H134.356C134.441 56.9387 134.548 56.736 134.676 56.544C134.814 56.3413 134.98 56.1707 135.172 56.032C135.364 55.8827 135.588 55.7653 135.844 55.68C136.1 55.5947 136.398 55.552 136.74 55.552C137.572 55.552 138.244 55.824 138.756 56.368C139.268 56.912 139.524 57.6853 139.524 58.688V64H137.78V58.944C137.78 57.632 137.209 56.976 136.068 56.976C135.844 56.976 135.625 57.008 135.411 57.072C135.198 57.1253 135.006 57.2107 134.836 57.328C134.665 57.4453 134.526 57.5947 134.42 57.776C134.324 57.9573 134.276 58.1653 134.276 58.4V64H132.532ZM145.885 64.192C145.267 64.192 144.712 64.0907 144.221 63.888C143.741 63.6853 143.331 63.3973 142.989 63.024C142.659 62.6507 142.403 62.1973 142.221 61.664C142.051 61.1307 141.965 60.5333 141.965 59.872C141.965 59.2107 142.051 58.6133 142.221 58.08C142.403 57.5467 142.659 57.0933 142.989 56.72C143.331 56.3467 143.741 56.0587 144.221 55.856C144.712 55.6533 145.261 55.552 145.869 55.552C146.723 55.552 147.405 55.7333 147.917 56.096C148.44 56.4587 148.829 56.928 149.085 57.504L147.725 58.24C147.576 57.856 147.347 57.552 147.037 57.328C146.739 57.104 146.349 56.992 145.869 56.992C145.208 56.992 144.696 57.1947 144.333 57.6C143.971 57.9947 143.789 58.5227 143.789 59.184V60.56C143.789 61.2107 143.971 61.7387 144.333 62.144C144.696 62.5493 145.219 62.752 145.901 62.752C146.413 62.752 146.829 62.6347 147.149 62.4C147.48 62.1653 147.741 61.8453 147.933 61.44L149.213 62.224C148.947 62.8 148.541 63.2747 147.997 63.648C147.453 64.0107 146.749 64.192 145.885 64.192ZM155.351 64.192C154.722 64.192 154.156 64.0907 153.655 63.888C153.154 63.6853 152.732 63.3973 152.391 63.024C152.05 62.6507 151.788 62.2027 151.607 61.68C151.426 61.1467 151.335 60.5493 151.335 59.888C151.335 59.2267 151.426 58.6293 151.607 58.096C151.799 57.5627 152.06 57.1093 152.391 56.736C152.732 56.352 153.143 56.0587 153.623 55.856C154.103 55.6533 154.636 55.552 155.223 55.552C155.799 55.552 156.322 55.6533 156.791 55.856C157.26 56.048 157.66 56.3253 157.991 56.688C158.322 57.0507 158.572 57.4827 158.743 57.984C158.924 58.4853 159.015 59.04 159.015 59.648V60.304H153.095V60.576C153.095 61.2267 153.298 61.76 153.703 62.176C154.108 62.5813 154.668 62.784 155.383 62.784C155.916 62.784 156.37 62.672 156.743 62.448C157.127 62.2133 157.436 61.904 157.671 61.52L158.759 62.48C158.482 62.96 158.055 63.3653 157.479 63.696C156.914 64.0267 156.204 64.192 155.351 64.192ZM155.223 56.88C154.914 56.88 154.626 56.9333 154.359 57.04C154.103 57.1467 153.879 57.3013 153.687 57.504C153.506 57.696 153.362 57.9253 153.255 58.192C153.148 58.4587 153.095 58.752 153.095 59.072V59.184H157.239V59.024C157.239 58.3733 157.052 57.856 156.679 57.472C156.316 57.0773 155.831 56.88 155.223 56.88Z" fill="#EBEBEB"/>
<path d="M201 79H60.0114C60.5428 55.7137 79.586 37 103 37H201V79Z" stroke="#EBEBEB" stroke-width="2"/>
<path d="M1 96H142V138H1V96Z" fill="black"/>
<path d="M41.704 122.192C40.7333 122.192 39.9173 122.021 39.256 121.68C38.5947 121.339 38.0507 120.885 37.624 120.32L38.776 119.216C39.2027 119.728 39.656 120.107 40.136 120.352C40.616 120.587 41.16 120.704 41.768 120.704C42.472 120.704 43.0107 120.544 43.384 120.224C43.768 119.904 43.96 119.445 43.96 118.848C43.96 118.368 43.8213 118 43.544 117.744C43.2667 117.477 42.792 117.285 42.12 117.168L40.904 116.976C40.3707 116.891 39.9227 116.752 39.56 116.56C39.1973 116.357 38.904 116.123 38.68 115.856C38.456 115.579 38.2907 115.275 38.184 114.944C38.088 114.603 38.04 114.245 38.04 113.872C38.04 112.816 38.3813 112.016 39.064 111.472C39.7467 110.917 40.6853 110.64 41.88 110.64C42.7653 110.64 43.5173 110.784 44.136 111.072C44.7653 111.349 45.272 111.744 45.656 112.256L44.536 113.376C44.2267 113.003 43.8587 112.704 43.432 112.48C43.016 112.245 42.4987 112.128 41.88 112.128C41.2187 112.128 40.712 112.272 40.36 112.56C40.0187 112.837 39.848 113.248 39.848 113.792C39.848 114.251 39.9813 114.613 40.248 114.88C40.5253 115.136 41.0107 115.323 41.704 115.44L42.888 115.648C43.8907 115.829 44.6213 116.197 45.08 116.752C45.5387 117.296 45.768 117.963 45.768 118.752C45.768 119.264 45.6773 119.733 45.496 120.16C45.3253 120.587 45.064 120.949 44.712 121.248C44.3707 121.547 43.944 121.781 43.432 121.952C42.9307 122.112 42.3547 122.192 41.704 122.192ZM51.9058 112.24C51.4578 112.24 51.1431 112.149 50.9618 111.968C50.7911 111.787 50.7057 111.563 50.7057 111.296V110.96C50.7057 110.693 50.7911 110.469 50.9618 110.288C51.1431 110.107 51.4524 110.016 51.8898 110.016C52.3378 110.016 52.6471 110.107 52.8178 110.288C52.9991 110.469 53.0898 110.693 53.0898 110.96V111.296C53.0898 111.563 52.9991 111.787 52.8178 111.968C52.6471 112.149 52.3431 112.24 51.9058 112.24ZM48.2098 120.592H51.0258V115.152H48.2098V113.744H52.7698V120.592H55.4097V122H48.2098V120.592ZM57.5315 122V113.744H59.2755V115.152H59.3555C59.4408 114.939 59.5475 114.736 59.6755 114.544C59.8142 114.341 59.9795 114.171 60.1715 114.032C60.3635 113.883 60.5875 113.765 60.8435 113.68C61.0995 113.595 61.3982 113.552 61.7395 113.552C62.5715 113.552 63.2435 113.824 63.7555 114.368C64.2675 114.912 64.5235 115.685 64.5235 116.688V122H62.7795V116.944C62.7795 115.632 62.2088 114.976 61.0675 114.976C60.8435 114.976 60.6248 115.008 60.4115 115.072C60.1982 115.125 60.0062 115.211 59.8355 115.328C59.6648 115.445 59.5262 115.595 59.4195 115.776C59.3235 115.957 59.2755 116.165 59.2755 116.4V122H57.5315ZM74.9013 122.896C74.9013 123.749 74.5439 124.379 73.8293 124.784C73.1146 125.189 72.0266 125.392 70.5653 125.392C69.8506 125.392 69.2479 125.344 68.7573 125.248C68.2773 125.163 67.8826 125.035 67.5733 124.864C67.2746 124.693 67.0559 124.485 66.9173 124.24C66.7893 123.995 66.7253 123.717 66.7253 123.408C66.7253 122.96 66.8479 122.608 67.0933 122.352C67.3493 122.107 67.7066 121.925 68.1653 121.808V121.648C67.8879 121.541 67.6639 121.392 67.4933 121.2C67.3333 121.008 67.2533 120.757 67.2533 120.448C67.2533 120.043 67.3919 119.739 67.6693 119.536C67.9466 119.323 68.3039 119.163 68.7413 119.056V118.976C68.2399 118.741 67.8506 118.411 67.5733 117.984C67.2959 117.557 67.1573 117.045 67.1573 116.448C67.1573 116.011 67.2373 115.616 67.3973 115.264C67.5573 114.901 67.7813 114.597 68.0693 114.352C68.3679 114.096 68.7199 113.899 69.1253 113.76C69.5413 113.621 70.0053 113.552 70.5173 113.552C71.0933 113.552 71.6106 113.643 72.0693 113.824V113.552C72.0693 113.232 72.1599 112.965 72.3413 112.752C72.5226 112.539 72.7999 112.432 73.1733 112.432H74.6773V113.808H72.7573V114.192C73.1199 114.437 73.3973 114.752 73.5893 115.136C73.7813 115.509 73.8773 115.947 73.8773 116.448C73.8773 116.885 73.7973 117.285 73.6373 117.648C73.4773 118 73.2479 118.304 72.9493 118.56C72.6613 118.805 72.3093 118.997 71.8933 119.136C71.4879 119.264 71.0293 119.328 70.5173 119.328C70.1546 119.328 69.8133 119.296 69.4933 119.232C69.3013 119.285 69.1093 119.376 68.9173 119.504C68.7253 119.632 68.6293 119.808 68.6293 120.032C68.6293 120.288 68.7519 120.448 68.9973 120.512C69.2426 120.576 69.5466 120.608 69.9093 120.608H71.7653C72.8746 120.608 73.6746 120.821 74.1653 121.248C74.6559 121.664 74.9013 122.213 74.9013 122.896ZM73.2693 123.008C73.2693 122.731 73.1573 122.507 72.9333 122.336C72.7093 122.176 72.3039 122.096 71.7173 122.096H68.8533C68.4479 122.288 68.2453 122.597 68.2453 123.024C68.2453 123.333 68.3733 123.6 68.6293 123.824C68.8959 124.048 69.3333 124.16 69.9413 124.16H71.2373C71.8986 124.16 72.3999 124.059 72.7413 123.856C73.0933 123.664 73.2693 123.381 73.2693 123.008ZM70.5173 118.128C71.0826 118.128 71.4986 117.995 71.7653 117.728C72.0319 117.461 72.1653 117.104 72.1653 116.656V116.224C72.1653 115.776 72.0319 115.419 71.7653 115.152C71.4986 114.885 71.0826 114.752 70.5173 114.752C69.9519 114.752 69.5359 114.885 69.2693 115.152C69.0026 115.419 68.8693 115.776 68.8693 116.224V116.656C68.8693 117.104 69.0026 117.461 69.2693 117.728C69.5359 117.995 69.9519 118.128 70.5173 118.128ZM80.687 112.24C80.239 112.24 79.9243 112.149 79.743 111.968C79.5723 111.787 79.487 111.563 79.487 111.296V110.96C79.487 110.693 79.5723 110.469 79.743 110.288C79.9243 110.107 80.2337 110.016 80.671 110.016C81.119 110.016 81.4283 110.107 81.599 110.288C81.7803 110.469 81.871 110.693 81.871 110.96V111.296C81.871 111.563 81.7803 111.787 81.599 111.968C81.4283 112.149 81.1243 112.24 80.687 112.24ZM76.991 120.592H79.807V115.152H76.991V113.744H81.551V120.592H84.191V122H76.991V120.592ZM86.3128 122V113.744H88.0568V115.152H88.1368C88.2221 114.939 88.3288 114.736 88.4568 114.544C88.5954 114.341 88.7608 114.171 88.9528 114.032C89.1448 113.883 89.3688 113.765 89.6248 113.68C89.8808 113.595 90.1794 113.552 90.5208 113.552C91.3528 113.552 92.0248 113.824 92.5368 114.368C93.0488 114.912 93.3048 115.685 93.3048 116.688V122H91.5608V116.944C91.5608 115.632 90.9901 114.976 89.8488 114.976C89.6248 114.976 89.4061 115.008 89.1927 115.072C88.9794 115.125 88.7874 115.211 88.6168 115.328C88.4461 115.445 88.3074 115.595 88.2008 115.776C88.1048 115.957 88.0568 116.165 88.0568 116.4V122H86.3128ZM103.683 122.896C103.683 123.749 103.325 124.379 102.611 124.784C101.896 125.189 100.808 125.392 99.3465 125.392C98.6318 125.392 98.0292 125.344 97.5385 125.248C97.0585 125.163 96.6638 125.035 96.3545 124.864C96.0558 124.693 95.8372 124.485 95.6985 124.24C95.5705 123.995 95.5065 123.717 95.5065 123.408C95.5065 122.96 95.6292 122.608 95.8745 122.352C96.1305 122.107 96.4878 121.925 96.9465 121.808V121.648C96.6692 121.541 96.4452 121.392 96.2745 121.2C96.1145 121.008 96.0345 120.757 96.0345 120.448C96.0345 120.043 96.1732 119.739 96.4505 119.536C96.7278 119.323 97.0852 119.163 97.5225 119.056V118.976C97.0212 118.741 96.6318 118.411 96.3545 117.984C96.0772 117.557 95.9385 117.045 95.9385 116.448C95.9385 116.011 96.0185 115.616 96.1785 115.264C96.3385 114.901 96.5625 114.597 96.8505 114.352C97.1492 114.096 97.5012 113.899 97.9065 113.76C98.3225 113.621 98.7865 113.552 99.2985 113.552C99.8745 113.552 100.392 113.643 100.851 113.824V113.552C100.851 113.232 100.941 112.965 101.123 112.752C101.304 112.539 101.581 112.432 101.955 112.432H103.459V113.808H101.539V114.192C101.901 114.437 102.179 114.752 102.371 115.136C102.563 115.509 102.659 115.947 102.659 116.448C102.659 116.885 102.579 117.285 102.419 117.648C102.259 118 102.029 118.304 101.731 118.56C101.443 118.805 101.091 118.997 100.675 119.136C100.269 119.264 99.8105 119.328 99.2985 119.328C98.9358 119.328 98.5945 119.296 98.2745 119.232C98.0825 119.285 97.8905 119.376 97.6985 119.504C97.5065 119.632 97.4105 119.808 97.4105 120.032C97.4105 120.288 97.5332 120.448 97.7785 120.512C98.0238 120.576 98.3278 120.608 98.6905 120.608H100.547C101.656 120.608 102.456 120.821 102.947 121.248C103.437 121.664 103.683 122.213 103.683 122.896ZM102.051 123.008C102.051 122.731 101.939 122.507 101.715 122.336C101.491 122.176 101.085 122.096 100.499 122.096H97.6345C97.2292 122.288 97.0265 122.597 97.0265 123.024C97.0265 123.333 97.1545 123.6 97.4105 123.824C97.6772 124.048 98.1145 124.16 98.7225 124.16H100.019C100.68 124.16 101.181 124.059 101.523 123.856C101.875 123.664 102.051 123.381 102.051 123.008ZM99.2985 118.128C99.8638 118.128 100.28 117.995 100.547 117.728C100.813 117.461 100.947 117.104 100.947 116.656V116.224C100.947 115.776 100.813 115.419 100.547 115.152C100.28 114.885 99.8638 114.752 99.2985 114.752C98.7332 114.752 98.3172 114.885 98.0505 115.152C97.7838 115.419 97.6505 115.776 97.6505 116.224V116.656C97.6505 117.104 97.7838 117.461 98.0505 117.728C98.3172 117.995 98.7332 118.128 99.2985 118.128Z" fill="#EBEBEB"/>
<path d="M1 96H142V138H1V96Z" stroke="#EBEBEB" stroke-width="2"/>
<path d="M201 157H60.0114C60.5428 180.286 79.586 199 103 199H201V157Z" fill="black"/>
<path d="M110.704 182.192C109.733 182.192 108.917 182.021 108.256 181.68C107.595 181.339 107.051 180.885 106.624 180.32L107.776 179.216C108.203 179.728 108.656 180.107 109.136 180.352C109.616 180.587 110.16 180.704 110.768 180.704C111.472 180.704 112.011 180.544 112.384 180.224C112.768 179.904 112.96 179.445 112.96 178.848C112.96 178.368 112.821 178 112.544 177.744C112.267 177.477 111.792 177.285 111.12 177.168L109.904 176.976C109.371 176.891 108.923 176.752 108.56 176.56C108.197 176.357 107.904 176.123 107.68 175.856C107.456 175.579 107.291 175.275 107.184 174.944C107.088 174.603 107.04 174.245 107.04 173.872C107.04 172.816 107.381 172.016 108.064 171.472C108.747 170.917 109.685 170.64 110.88 170.64C111.765 170.64 112.517 170.784 113.136 171.072C113.765 171.349 114.272 171.744 114.656 172.256L113.536 173.376C113.227 173.003 112.859 172.704 112.432 172.48C112.016 172.245 111.499 172.128 110.88 172.128C110.219 172.128 109.712 172.272 109.36 172.56C109.019 172.837 108.848 173.248 108.848 173.792C108.848 174.251 108.981 174.613 109.248 174.88C109.525 175.136 110.011 175.323 110.704 175.44L111.888 175.648C112.891 175.829 113.621 176.197 114.08 176.752C114.539 177.296 114.768 177.963 114.768 178.752C114.768 179.264 114.677 179.733 114.496 180.16C114.325 180.587 114.064 180.949 113.712 181.248C113.371 181.547 112.944 181.781 112.432 181.952C111.931 182.112 111.355 182.192 110.704 182.192ZM116.858 173.744H118.602V175.152H118.698C118.943 174.651 119.268 174.261 119.674 173.984C120.079 173.696 120.586 173.552 121.194 173.552C122.164 173.552 122.938 173.915 123.514 174.64C124.09 175.365 124.378 176.443 124.378 177.872C124.378 179.301 124.09 180.379 123.514 181.104C122.938 181.829 122.164 182.192 121.194 182.192C120.586 182.192 120.079 182.053 119.674 181.776C119.268 181.488 118.943 181.093 118.698 180.592H118.602V185.2H116.858V173.744ZM120.474 180.768C121.135 180.768 121.642 180.565 121.994 180.16C122.356 179.755 122.538 179.216 122.538 178.544V177.2C122.538 176.528 122.356 175.989 121.994 175.584C121.642 175.179 121.135 174.976 120.474 174.976C120.218 174.976 119.978 175.008 119.754 175.072C119.53 175.136 119.332 175.232 119.162 175.36C118.991 175.488 118.852 175.648 118.746 175.84C118.65 176.021 118.602 176.24 118.602 176.496V179.248C118.602 179.504 118.65 179.728 118.746 179.92C118.852 180.101 118.991 180.256 119.162 180.384C119.332 180.512 119.53 180.608 119.754 180.672C119.978 180.736 120.218 180.768 120.474 180.768ZM129.988 182.192C129.38 182.192 128.83 182.091 128.34 181.888C127.86 181.685 127.449 181.397 127.108 181.024C126.777 180.651 126.521 180.197 126.34 179.664C126.158 179.131 126.068 178.533 126.068 177.872C126.068 177.211 126.158 176.613 126.34 176.08C126.521 175.547 126.777 175.093 127.108 174.72C127.449 174.347 127.86 174.059 128.34 173.856C128.83 173.653 129.38 173.552 129.988 173.552C130.596 173.552 131.14 173.653 131.62 173.856C132.11 174.059 132.521 174.347 132.852 174.72C133.193 175.093 133.454 175.547 133.635 176.08C133.817 176.613 133.908 177.211 133.908 177.872C133.908 178.533 133.817 179.131 133.635 179.664C133.454 180.197 133.193 180.651 132.852 181.024C132.521 181.397 132.11 181.685 131.62 181.888C131.14 182.091 130.596 182.192 129.988 182.192ZM129.988 180.816C130.628 180.816 131.134 180.624 131.508 180.24C131.892 179.845 132.084 179.264 132.084 178.496V177.248C132.084 176.48 131.892 175.904 131.508 175.52C131.134 175.125 130.628 174.928 129.988 174.928C129.348 174.928 128.836 175.125 128.452 175.52C128.078 175.904 127.892 176.48 127.892 177.248V178.496C127.892 179.264 128.078 179.845 128.452 180.24C128.836 180.624 129.348 180.816 129.988 180.816ZM135.997 180.592H138.189V175.152H135.997V173.744H139.933V175.936H140.029C140.104 175.648 140.211 175.371 140.349 175.104C140.488 174.837 140.664 174.608 140.877 174.416C141.091 174.213 141.352 174.053 141.661 173.936C141.971 173.808 142.333 173.744 142.749 173.744H143.741V175.408H142.109C141.469 175.408 140.947 175.6 140.541 175.984C140.136 176.357 139.933 176.864 139.933 177.504V180.592H142.925V182H135.997V180.592ZM149.671 182C148.946 182 148.412 181.808 148.071 181.424C147.73 181.029 147.559 180.523 147.559 179.904V175.152H145.015V173.744H146.823C147.132 173.744 147.351 173.685 147.479 173.568C147.607 173.44 147.671 173.216 147.671 172.896V170.832H149.303V173.744H152.823V175.152H149.303V180.592H152.823V182H149.671ZM158.785 182.192C157.889 182.192 157.115 182.048 156.465 181.76C155.825 181.472 155.307 181.088 154.913 180.608L155.985 179.648C156.347 180.043 156.753 180.347 157.201 180.56C157.659 180.763 158.198 180.864 158.817 180.864C159.382 180.864 159.835 180.768 160.177 180.576C160.529 180.384 160.705 180.085 160.705 179.68C160.705 179.509 160.673 179.365 160.609 179.248C160.545 179.131 160.454 179.035 160.337 178.96C160.219 178.885 160.081 178.827 159.921 178.784C159.771 178.741 159.611 178.709 159.441 178.688L158.129 178.48C157.809 178.437 157.483 178.368 157.153 178.272C156.822 178.176 156.523 178.043 156.257 177.872C156.001 177.691 155.787 177.461 155.617 177.184C155.457 176.907 155.377 176.555 155.377 176.128C155.377 175.285 155.697 174.645 156.337 174.208C156.987 173.771 157.841 173.552 158.897 173.552C159.665 173.552 160.326 173.669 160.881 173.904C161.446 174.128 161.915 174.443 162.289 174.848L161.313 175.872C161.099 175.627 160.795 175.403 160.401 175.2C160.006 174.987 159.483 174.88 158.833 174.88C157.67 174.88 157.089 175.248 157.089 175.984C157.089 176.336 157.211 176.581 157.457 176.72C157.713 176.848 158.011 176.933 158.353 176.976L159.665 177.184C159.995 177.237 160.321 177.307 160.641 177.392C160.971 177.477 161.265 177.611 161.521 177.792C161.787 177.963 162.001 178.187 162.161 178.464C162.331 178.741 162.417 179.093 162.417 179.52C162.417 180.352 162.091 181.008 161.441 181.488C160.801 181.957 159.915 182.192 158.785 182.192Z" fill="#EBEBEB"/>
<path d="M201 157H60.0114C60.5428 180.286 79.586 199 103 199H201V157Z" stroke="#EBEBEB" stroke-width="2"/>
</svg>
