<svg width="1026" height="256" viewBox="0 0 1026 256" fill="none" xmlns="http://www.w3.org/2000/svg">
<rect width="205" height="3" transform="translate(202 177)" fill="white"/>
<rect width="205" height="3" transform="matrix(-1 0 0 1 825 59)" fill="#EBEBEB"/>
<rect width="245" height="3" transform="matrix(-1 0 0 1 883 117)" fill="#EBEBEB"/>
<rect width="205" height="3" transform="matrix(-1 0 0 1 824 178)" fill="#EBEBEB"/>
<path d="M825 80H965.989C965.457 56.7137 946.414 38 923 38H825V80Z" fill="black"/>
<path d="M855.2 65L854.4 53.832H855.968L856.368 60.328L856.544 63.192H856.672L857.936 56.536H859.712L860.976 63.192H861.104L861.28 60.328L861.696 53.832H863.2L862.4 65H860L858.864 58.536H858.736L857.6 65H855.2ZM868.906 55.24C868.458 55.24 868.143 55.1493 867.962 54.968C867.791 54.7867 867.706 54.5627 867.706 54.296V53.96C867.706 53.6933 867.791 53.4693 867.962 53.288C868.143 53.1067 868.452 53.016 868.89 53.016C869.338 53.016 869.647 53.1067 869.818 53.288C869.999 53.4693 870.09 53.6933 870.09 53.96V54.296C870.09 54.5627 869.999 54.7867 869.818 54.968C869.647 55.1493 869.343 55.24 868.906 55.24ZM865.21 63.592H868.026V58.152H865.21V56.744H869.77V63.592H872.41V65H865.21V63.592ZM874.532 65V56.744H876.276V58.152H876.356C876.441 57.9387 876.548 57.736 876.676 57.544C876.814 57.3413 876.98 57.1707 877.172 57.032C877.364 56.8827 877.588 56.7653 877.844 56.68C878.1 56.5947 878.398 56.552 878.74 56.552C879.572 56.552 880.244 56.824 880.756 57.368C881.268 57.912 881.524 58.6853 881.524 59.688V65H879.78V59.944C879.78 58.632 879.209 57.976 878.068 57.976C877.844 57.976 877.625 58.008 877.411 58.072C877.198 58.1253 877.006 58.2107 876.836 58.328C876.665 58.4453 876.526 58.5947 876.42 58.776C876.324 58.9573 876.276 59.1653 876.276 59.4V65H874.532ZM899.031 60.088H895.319V65H893.527V53.832H895.319V58.584H899.031V53.832H900.823V65H899.031V60.088ZM906.769 65.192C906.161 65.192 905.611 65.0907 905.121 64.888C904.641 64.6853 904.23 64.3973 903.889 64.024C903.558 63.6507 903.302 63.1973 903.121 62.664C902.939 62.1307 902.849 61.5333 902.849 60.872C902.849 60.2107 902.939 59.6133 903.121 59.08C903.302 58.5467 903.558 58.0933 903.889 57.72C904.23 57.3467 904.641 57.0587 905.121 56.856C905.611 56.6533 906.161 56.552 906.769 56.552C907.377 56.552 907.921 56.6533 908.401 56.856C908.891 57.0587 909.302 57.3467 909.633 57.72C909.974 58.0933 910.235 58.5467 910.417 59.08C910.598 59.6133 910.689 60.2107 910.689 60.872C910.689 61.5333 910.598 62.1307 910.417 62.664C910.235 63.1973 909.974 63.6507 909.633 64.024C909.302 64.3973 908.891 64.6853 908.401 64.888C907.921 65.0907 907.377 65.192 906.769 65.192ZM906.769 63.816C907.409 63.816 907.915 63.624 908.289 63.24C908.673 62.8453 908.865 62.264 908.865 61.496V60.248C908.865 59.48 908.673 58.904 908.289 58.52C907.915 58.1253 907.409 57.928 906.769 57.928C906.129 57.928 905.617 58.1253 905.233 58.52C904.859 58.904 904.673 59.48 904.673 60.248V61.496C904.673 62.264 904.859 62.8453 905.233 63.24C905.617 63.624 906.129 63.816 906.769 63.816ZM912.267 65V56.744H913.755V57.816H913.835C913.963 57.464 914.144 57.1653 914.379 56.92C914.624 56.6747 914.971 56.552 915.419 56.552C915.856 56.552 916.192 56.6747 916.427 56.92C916.672 57.1547 916.827 57.48 916.891 57.896H916.955C917.104 57.5227 917.312 57.208 917.579 56.952C917.845 56.6853 918.229 56.552 918.731 56.552C919.371 56.552 919.813 56.776 920.059 57.224C920.315 57.672 920.443 58.328 920.443 59.192V65H918.955V59.416C918.955 58.84 918.885 58.4453 918.747 58.232C918.608 58.008 918.384 57.896 918.075 57.896C917.797 57.896 917.563 57.992 917.371 58.184C917.189 58.3653 917.099 58.6427 917.099 59.016V65H915.611V59.416C915.611 58.84 915.541 58.4453 915.403 58.232C915.275 58.008 915.056 57.896 914.747 57.896C914.459 57.896 914.219 57.992 914.027 58.184C913.845 58.3653 913.755 58.6427 913.755 59.016V65H912.267ZM926.132 65.192C925.503 65.192 924.938 65.0907 924.436 64.888C923.935 64.6853 923.514 64.3973 923.172 64.024C922.831 63.6507 922.57 63.2027 922.388 62.68C922.207 62.1467 922.116 61.5493 922.116 60.888C922.116 60.2267 922.207 59.6293 922.388 59.096C922.58 58.5627 922.842 58.1093 923.172 57.736C923.514 57.352 923.924 57.0587 924.404 56.856C924.884 56.6533 925.418 56.552 926.004 56.552C926.58 56.552 927.103 56.6533 927.572 56.856C928.042 57.048 928.442 57.3253 928.772 57.688C929.103 58.0507 929.354 58.4827 929.524 58.984C929.706 59.4853 929.796 60.04 929.796 60.648V61.304H923.876V61.576C923.876 62.2267 924.079 62.76 924.484 63.176C924.89 63.5813 925.45 63.784 926.164 63.784C926.698 63.784 927.151 63.672 927.524 63.448C927.908 63.2133 928.218 62.904 928.452 62.52L929.54 63.48C929.263 63.96 928.836 64.3653 928.26 64.696C927.695 65.0267 926.986 65.192 926.132 65.192ZM926.004 57.88C925.695 57.88 925.407 57.9333 925.14 58.04C924.884 58.1467 924.66 58.3013 924.468 58.504C924.287 58.696 924.143 58.9253 924.036 59.192C923.93 59.4587 923.876 59.752 923.876 60.072V60.184H928.02V60.024C928.02 59.3733 927.834 58.856 927.46 58.472C927.098 58.0773 926.612 57.88 926.004 57.88Z" fill="white"/>
<path d="M825 80H965.989C965.457 56.7137 946.414 38 923 38H825V80Z" stroke="#EBEBEB" stroke-width="2"/>
<path d="M1025 97H884V139H1025V97Z" fill="black"/>
<path d="M928.392 124L927.544 121.024H923.992L923.144 124H921.32L924.584 112.832H927.032L930.296 124H928.392ZM925.832 114.64H925.704L924.328 119.536H927.208L925.832 114.64ZM931.298 124V115.744H932.786V116.816H932.866C932.994 116.464 933.175 116.165 933.41 115.92C933.655 115.675 934.002 115.552 934.45 115.552C934.887 115.552 935.223 115.675 935.458 115.92C935.703 116.155 935.858 116.48 935.922 116.896H935.986C936.135 116.523 936.343 116.208 936.61 115.952C936.876 115.685 937.26 115.552 937.762 115.552C938.402 115.552 938.844 115.776 939.09 116.224C939.346 116.672 939.474 117.328 939.474 118.192V124H937.986V118.416C937.986 117.84 937.916 117.445 937.778 117.232C937.639 117.008 937.415 116.896 937.106 116.896C936.828 116.896 936.594 116.992 936.402 117.184C936.22 117.365 936.13 117.643 936.13 118.016V124H934.642V118.416C934.642 117.84 934.572 117.445 934.434 117.232C934.306 117.008 934.087 116.896 933.778 116.896C933.49 116.896 933.25 116.992 933.058 117.184C932.876 117.365 932.786 117.643 932.786 118.016V124H931.298ZM948.06 124C947.558 124 947.18 123.872 946.924 123.616C946.678 123.36 946.529 123.024 946.476 122.608H946.396C946.236 123.109 945.942 123.499 945.516 123.776C945.1 124.053 944.566 124.192 943.916 124.192C943.073 124.192 942.401 123.973 941.9 123.536C941.398 123.088 941.148 122.475 941.148 121.696C941.148 120.896 941.441 120.288 942.028 119.872C942.625 119.445 943.537 119.232 944.764 119.232H946.348V118.592C946.348 117.472 945.756 116.912 944.572 116.912C944.038 116.912 943.606 117.019 943.276 117.232C942.945 117.435 942.668 117.707 942.444 118.048L941.404 117.2C941.638 116.752 942.033 116.368 942.588 116.048C943.142 115.717 943.857 115.552 944.732 115.552C945.777 115.552 946.598 115.803 947.196 116.304C947.793 116.805 948.092 117.531 948.092 118.48V122.624H949.132V124H948.06ZM944.411 122.912C944.977 122.912 945.441 122.784 945.804 122.528C946.166 122.272 946.348 121.941 946.348 121.536V120.336H944.796C943.537 120.336 942.908 120.715 942.908 121.472V121.792C942.908 122.165 943.041 122.448 943.308 122.64C943.574 122.821 943.942 122.912 944.411 122.912ZM951.013 124V122.464L956.037 117.152H951.189V115.744H957.989V117.28L952.965 122.592H958.149V124H951.013ZM964.687 114.24C964.239 114.24 963.924 114.149 963.743 113.968C963.572 113.787 963.487 113.563 963.487 113.296V112.96C963.487 112.693 963.572 112.469 963.743 112.288C963.924 112.107 964.234 112.016 964.671 112.016C965.119 112.016 965.428 112.107 965.599 112.288C965.78 112.469 965.871 112.693 965.871 112.96V113.296C965.871 113.563 965.78 113.787 965.599 113.968C965.428 114.149 965.124 114.24 964.687 114.24ZM960.991 122.592H963.807V117.152H960.991V115.744H965.551V122.592H968.191V124H960.991V122.592ZM970.313 124V115.744H972.057V117.152H972.137C972.222 116.939 972.329 116.736 972.457 116.544C972.595 116.341 972.761 116.171 972.953 116.032C973.145 115.883 973.369 115.765 973.625 115.68C973.881 115.595 974.179 115.552 974.521 115.552C975.353 115.552 976.025 115.824 976.537 116.368C977.049 116.912 977.305 117.685 977.305 118.688V124H975.561V118.944C975.561 117.632 974.99 116.976 973.849 116.976C973.625 116.976 973.406 117.008 973.193 117.072C972.979 117.125 972.787 117.211 972.617 117.328C972.446 117.445 972.307 117.595 972.201 117.776C972.105 117.957 972.057 118.165 972.057 118.4V124H970.313ZM987.683 124.896C987.683 125.749 987.325 126.379 986.611 126.784C985.896 127.189 984.808 127.392 983.347 127.392C982.632 127.392 982.029 127.344 981.539 127.248C981.059 127.163 980.664 127.035 980.355 126.864C980.056 126.693 979.837 126.485 979.699 126.24C979.571 125.995 979.507 125.717 979.507 125.408C979.507 124.96 979.629 124.608 979.875 124.352C980.131 124.107 980.488 123.925 980.947 123.808V123.648C980.669 123.541 980.445 123.392 980.275 123.2C980.115 123.008 980.035 122.757 980.035 122.448C980.035 122.043 980.173 121.739 980.451 121.536C980.728 121.323 981.085 121.163 981.523 121.056V120.976C981.021 120.741 980.632 120.411 980.355 119.984C980.077 119.557 979.939 119.045 979.939 118.448C979.939 118.011 980.019 117.616 980.179 117.264C980.339 116.901 980.563 116.597 980.851 116.352C981.149 116.096 981.501 115.899 981.907 115.76C982.323 115.621 982.787 115.552 983.299 115.552C983.875 115.552 984.392 115.643 984.851 115.824V115.552C984.851 115.232 984.941 114.965 985.123 114.752C985.304 114.539 985.581 114.432 985.955 114.432H987.459V115.808H985.539V116.192C985.901 116.437 986.179 116.752 986.371 117.136C986.563 117.509 986.659 117.947 986.659 118.448C986.659 118.885 986.579 119.285 986.419 119.648C986.259 120 986.029 120.304 985.731 120.56C985.443 120.805 985.091 120.997 984.675 121.136C984.269 121.264 983.811 121.328 983.299 121.328C982.936 121.328 982.595 121.296 982.275 121.232C982.083 121.285 981.891 121.376 981.699 121.504C981.507 121.632 981.411 121.808 981.411 122.032C981.411 122.288 981.533 122.448 981.779 122.512C982.024 122.576 982.328 122.608 982.691 122.608H984.547C985.656 122.608 986.456 122.821 986.947 123.248C987.437 123.664 987.683 124.213 987.683 124.896ZM986.051 125.008C986.051 124.731 985.939 124.507 985.715 124.336C985.491 124.176 985.085 124.096 984.499 124.096H981.635C981.229 124.288 981.027 124.597 981.027 125.024C981.027 125.333 981.155 125.6 981.411 125.824C981.677 126.048 982.115 126.16 982.723 126.16H984.019C984.68 126.16 985.181 126.059 985.523 125.856C985.875 125.664 986.051 125.381 986.051 125.008ZM983.299 120.128C983.864 120.128 984.28 119.995 984.547 119.728C984.813 119.461 984.947 119.104 984.947 118.656V118.224C984.947 117.776 984.813 117.419 984.547 117.152C984.28 116.885 983.864 116.752 983.299 116.752C982.733 116.752 982.317 116.885 982.051 117.152C981.784 117.419 981.651 117.776 981.651 118.224V118.656C981.651 119.104 981.784 119.461 982.051 119.728C982.317 119.995 982.733 120.128 983.299 120.128Z" fill="white"/>
<path d="M1025 97H884V139H1025V97Z" stroke="#EBEBEB" stroke-width="2"/>
<path d="M825 158H965.989C965.457 181.286 946.414 200 923 200H825V158Z" fill="black"/>
<path d="M862.344 185V173.832H866.52C867.587 173.832 868.397 174.131 868.952 174.728C869.517 175.325 869.8 176.147 869.8 177.192C869.8 178.237 869.517 179.059 868.952 179.656C868.397 180.253 867.587 180.552 866.52 180.552H864.136V185H862.344ZM864.136 179.064H866.248C867.357 179.064 867.912 178.552 867.912 177.528V176.84C867.912 175.827 867.357 175.32 866.248 175.32H864.136V179.064ZM871.81 183.592H874.002V178.152H871.81V176.744H875.746V178.936H875.842C875.916 178.648 876.023 178.371 876.162 178.104C876.3 177.837 876.476 177.608 876.69 177.416C876.903 177.213 877.164 177.053 877.474 176.936C877.783 176.808 878.146 176.744 878.562 176.744H879.554V178.408H877.922C877.282 178.408 876.759 178.6 876.354 178.984C875.948 179.357 875.746 179.864 875.746 180.504V183.592H878.738V185H871.81V183.592ZM885.5 175.24C885.052 175.24 884.737 175.149 884.556 174.968C884.385 174.787 884.299 174.563 884.299 174.296V173.96C884.299 173.693 884.385 173.469 884.556 173.288C884.737 173.107 885.046 173.016 885.484 173.016C885.932 173.016 886.241 173.107 886.412 173.288C886.593 173.469 886.684 173.693 886.684 173.96V174.296C886.684 174.563 886.593 174.787 886.412 174.968C886.241 175.149 885.937 175.24 885.5 175.24ZM881.804 183.592H884.62V178.152H881.804V176.744H886.364V183.592H889.003V185H881.804V183.592ZM891.013 185V183.464L896.037 178.152H891.189V176.744H897.989V178.28L892.965 183.592H898.149V185H891.013ZM904.351 185.192C903.722 185.192 903.156 185.091 902.655 184.888C902.154 184.685 901.732 184.397 901.391 184.024C901.05 183.651 900.788 183.203 900.607 182.68C900.426 182.147 900.335 181.549 900.335 180.888C900.335 180.227 900.426 179.629 900.607 179.096C900.799 178.563 901.06 178.109 901.391 177.736C901.732 177.352 902.143 177.059 902.623 176.856C903.103 176.653 903.636 176.552 904.223 176.552C904.799 176.552 905.322 176.653 905.791 176.856C906.26 177.048 906.66 177.325 906.991 177.688C907.322 178.051 907.572 178.483 907.743 178.984C907.924 179.485 908.015 180.04 908.015 180.648V181.304H902.095V181.576C902.095 182.227 902.298 182.76 902.703 183.176C903.108 183.581 903.668 183.784 904.383 183.784C904.916 183.784 905.37 183.672 905.743 183.448C906.127 183.213 906.436 182.904 906.671 182.52L907.759 183.48C907.482 183.96 907.055 184.365 906.479 184.696C905.914 185.027 905.204 185.192 904.351 185.192ZM904.223 177.88C903.914 177.88 903.626 177.933 903.359 178.04C903.103 178.147 902.879 178.301 902.687 178.504C902.506 178.696 902.362 178.925 902.255 179.192C902.148 179.459 902.095 179.752 902.095 180.072V180.184H906.239V180.024C906.239 179.373 906.052 178.856 905.679 178.472C905.316 178.077 904.831 177.88 904.223 177.88ZM913.785 185.192C912.889 185.192 912.115 185.048 911.465 184.76C910.825 184.472 910.307 184.088 909.913 183.608L910.985 182.648C911.347 183.043 911.753 183.347 912.201 183.56C912.659 183.763 913.198 183.864 913.817 183.864C914.382 183.864 914.835 183.768 915.177 183.576C915.529 183.384 915.705 183.085 915.705 182.68C915.705 182.509 915.673 182.365 915.609 182.248C915.545 182.131 915.454 182.035 915.337 181.96C915.219 181.885 915.081 181.827 914.921 181.784C914.771 181.741 914.611 181.709 914.441 181.688L913.129 181.48C912.809 181.437 912.483 181.368 912.153 181.272C911.822 181.176 911.523 181.043 911.257 180.872C911.001 180.691 910.787 180.461 910.617 180.184C910.457 179.907 910.377 179.555 910.377 179.128C910.377 178.285 910.697 177.645 911.337 177.208C911.987 176.771 912.841 176.552 913.897 176.552C914.665 176.552 915.326 176.669 915.881 176.904C916.446 177.128 916.915 177.443 917.289 177.848L916.313 178.872C916.099 178.627 915.795 178.403 915.401 178.2C915.006 177.987 914.483 177.88 913.833 177.88C912.67 177.88 912.089 178.248 912.089 178.984C912.089 179.336 912.211 179.581 912.457 179.72C912.713 179.848 913.011 179.933 913.353 179.976L914.665 180.184C914.995 180.237 915.321 180.307 915.641 180.392C915.971 180.477 916.265 180.611 916.521 180.792C916.787 180.963 917.001 181.187 917.161 181.464C917.331 181.741 917.417 182.093 917.417 182.52C917.417 183.352 917.091 184.008 916.441 184.488C915.801 184.957 914.915 185.192 913.785 185.192Z" fill="white"/>
<path d="M825 158H965.989C965.457 181.286 946.414 200 923 200H825V158Z" stroke="#EBEBEB" stroke-width="2"/>
<rect x="386.5" y="1.5" width="253" height="253" rx="126.5" fill="black"/>
<rect x="386.5" y="1.5" width="253" height="253" rx="126.5" stroke="#EBEBEB" stroke-width="3"/>
<rect width="205" height="3" transform="translate(201 58)" fill="#EBEBEB"/>
<rect width="245" height="3" transform="translate(143 116)" fill="#EBEBEB"/>
<path d="M201 79H60.0114C60.5428 55.7137 79.586 37 103 37H201V79Z" fill="black"/>
<path d="M113.376 64V52.832H120.368V54.336H115.168V57.584H120.176V59.088H115.168V62.496H120.368V64H113.376ZM122.938 64V55.744H124.682V57.152H124.762C124.847 56.9387 124.954 56.736 125.082 56.544C125.22 56.3413 125.386 56.1707 125.578 56.032C125.77 55.8827 125.994 55.7653 126.25 55.68C126.506 55.5947 126.804 55.552 127.146 55.552C127.978 55.552 128.65 55.824 129.162 56.368C129.674 56.912 129.93 57.6853 129.93 58.688V64H128.186V58.944C128.186 57.632 127.615 56.976 126.474 56.976C126.25 56.976 126.031 57.008 125.818 57.072C125.604 57.1253 125.412 57.2107 125.242 57.328C125.071 57.4453 124.932 57.5947 124.826 57.776C124.73 57.9573 124.682 58.1653 124.682 58.4V64H122.938ZM132.756 65.792H136.404V57.152H132.66V55.744H138.148V65.104C138.148 65.7227 137.972 66.224 137.62 66.608C137.278 67.0027 136.745 67.2 136.02 67.2H132.756V65.792ZM137.284 54.24C136.836 54.24 136.521 54.1493 136.34 53.968C136.169 53.7867 136.084 53.5627 136.084 53.296V52.96C136.084 52.6933 136.169 52.4693 136.34 52.288C136.521 52.1067 136.83 52.016 137.268 52.016C137.716 52.016 138.025 52.1067 138.196 52.288C138.377 52.4693 138.468 52.6933 138.468 52.96V53.296C138.468 53.5627 138.377 53.7867 138.196 53.968C138.025 54.1493 137.721 54.24 137.284 54.24ZM145.581 64.192C144.973 64.192 144.424 64.0907 143.933 63.888C143.453 63.6853 143.043 63.3973 142.701 63.024C142.371 62.6507 142.115 62.1973 141.933 61.664C141.752 61.1307 141.661 60.5333 141.661 59.872C141.661 59.2107 141.752 58.6133 141.933 58.08C142.115 57.5467 142.371 57.0933 142.701 56.72C143.043 56.3467 143.453 56.0587 143.933 55.856C144.424 55.6533 144.973 55.552 145.581 55.552C146.189 55.552 146.733 55.6533 147.213 55.856C147.704 56.0587 148.115 56.3467 148.445 56.72C148.787 57.0933 149.048 57.5467 149.229 58.08C149.411 58.6133 149.501 59.2107 149.501 59.872C149.501 60.5333 149.411 61.1307 149.229 61.664C149.048 62.1973 148.787 62.6507 148.445 63.024C148.115 63.3973 147.704 63.6853 147.213 63.888C146.733 64.0907 146.189 64.192 145.581 64.192ZM145.581 62.816C146.221 62.816 146.728 62.624 147.101 62.24C147.485 61.8453 147.677 61.264 147.677 60.496V59.248C147.677 58.48 147.485 57.904 147.101 57.52C146.728 57.1253 146.221 56.928 145.581 56.928C144.941 56.928 144.429 57.1253 144.045 57.52C143.672 57.904 143.485 58.48 143.485 59.248V60.496C143.485 61.264 143.672 61.8453 144.045 62.24C144.429 62.624 144.941 62.816 145.581 62.816ZM157.591 55.744H159.351L155.351 65.6C155.138 66.1333 154.855 66.5333 154.503 66.8C154.162 67.0667 153.666 67.2 153.015 67.2H151.623V65.792H153.575L154.327 63.888L150.999 55.744H152.823L154.135 59.2L155.159 62.032H155.255L156.279 59.2L157.591 55.744Z" fill="white"/>
<path d="M201 79H60.0114C60.5428 55.7137 79.586 37 103 37H201V79Z" stroke="#EBEBEB" stroke-width="2"/>
<path d="M1 96H142V138H1V96Z" fill="black"/>
<path d="M33.376 123V111.832H40.368V113.336H35.168V116.584H40.176V118.088H35.168V121.496H40.368V123H33.376ZM42.3138 123L45.3858 118.808L42.4418 114.744H44.4738L45.5618 116.312L46.4258 117.56H46.5218L47.3698 116.312L48.4578 114.744H50.3458L47.3858 118.744L50.4898 123H48.4418L47.2098 121.224L46.3618 120.008H46.2658L45.4338 121.224L44.2178 123H42.3138ZM56.2915 123.192C55.6728 123.192 55.1182 123.091 54.6275 122.888C54.1475 122.685 53.7368 122.397 53.3955 122.024C53.0648 121.651 52.8088 121.197 52.6275 120.664C52.4568 120.131 52.3715 119.533 52.3715 118.872C52.3715 118.211 52.4568 117.613 52.6275 117.08C52.8088 116.547 53.0648 116.093 53.3955 115.72C53.7368 115.347 54.1475 115.059 54.6275 114.856C55.1182 114.653 55.6675 114.552 56.2755 114.552C57.1288 114.552 57.8115 114.733 58.3235 115.096C58.8462 115.459 59.2355 115.928 59.4915 116.504L58.1315 117.24C57.9822 116.856 57.7528 116.552 57.4435 116.328C57.1448 116.104 56.7555 115.992 56.2755 115.992C55.6142 115.992 55.1022 116.195 54.7395 116.6C54.3768 116.995 54.1955 117.523 54.1955 118.184V119.56C54.1955 120.211 54.3768 120.739 54.7395 121.144C55.1022 121.549 55.6248 121.752 56.3075 121.752C56.8195 121.752 57.2355 121.635 57.5555 121.4C57.8862 121.165 58.1475 120.845 58.3395 120.44L59.6195 121.224C59.3528 121.8 58.9475 122.275 58.4035 122.648C57.8595 123.011 57.1555 123.192 56.2915 123.192ZM66.0933 113.24C65.6453 113.24 65.3306 113.149 65.1493 112.968C64.9786 112.787 64.8932 112.563 64.8932 112.296V111.96C64.8932 111.693 64.9786 111.469 65.1493 111.288C65.3306 111.107 65.6399 111.016 66.0773 111.016C66.5253 111.016 66.8346 111.107 67.0053 111.288C67.1866 111.469 67.2773 111.693 67.2773 111.96V112.296C67.2773 112.563 67.1866 112.787 67.0053 112.968C66.8346 113.149 66.5306 113.24 66.0933 113.24ZM62.3973 121.592H65.2133V116.152H62.3973V114.744H66.9573V121.592H69.5972V123H62.3973V121.592ZM75.671 123C74.9457 123 74.4123 122.808 74.071 122.424C73.7297 122.029 73.559 121.523 73.559 120.904V116.152H71.015V114.744H72.823C73.1323 114.744 73.351 114.685 73.479 114.568C73.607 114.44 73.671 114.216 73.671 113.896V111.832H75.303V114.744H78.823V116.152H75.303V121.592H78.823V123H75.671ZM85.2808 113.24C84.8328 113.24 84.5181 113.149 84.3368 112.968C84.1661 112.787 84.0807 112.563 84.0807 112.296V111.96C84.0807 111.693 84.1661 111.469 84.3368 111.288C84.5181 111.107 84.8274 111.016 85.2648 111.016C85.7128 111.016 86.0221 111.107 86.1928 111.288C86.3741 111.469 86.4648 111.693 86.4648 111.96V112.296C86.4648 112.563 86.3741 112.787 86.1928 112.968C86.0221 113.149 85.7181 113.24 85.2808 113.24ZM81.5848 121.592H84.4008V116.152H81.5848V114.744H86.1448V121.592H88.7847V123H81.5848V121.592ZM90.9065 123V114.744H92.6505V116.152H92.7305C92.8158 115.939 92.9225 115.736 93.0505 115.544C93.1892 115.341 93.3545 115.171 93.5465 115.032C93.7385 114.883 93.9625 114.765 94.2185 114.68C94.4745 114.595 94.7732 114.552 95.1145 114.552C95.9465 114.552 96.6185 114.824 97.1305 115.368C97.6425 115.912 97.8985 116.685 97.8985 117.688V123H96.1545V117.944C96.1545 116.632 95.5838 115.976 94.4425 115.976C94.2185 115.976 93.9998 116.008 93.7865 116.072C93.5732 116.125 93.3812 116.211 93.2105 116.328C93.0398 116.445 92.9012 116.595 92.7945 116.776C92.6985 116.957 92.6505 117.165 92.6505 117.4V123H90.9065ZM108.276 123.896C108.276 124.749 107.919 125.379 107.204 125.784C106.49 126.189 105.402 126.392 103.94 126.392C103.226 126.392 102.623 126.344 102.132 126.248C101.652 126.163 101.258 126.035 100.948 125.864C100.65 125.693 100.431 125.485 100.292 125.24C100.164 124.995 100.1 124.717 100.1 124.408C100.1 123.96 100.223 123.608 100.468 123.352C100.724 123.107 101.082 122.925 101.54 122.808V122.648C101.263 122.541 101.039 122.392 100.868 122.2C100.708 122.008 100.628 121.757 100.628 121.448C100.628 121.043 100.767 120.739 101.044 120.536C101.322 120.323 101.679 120.163 102.116 120.056V119.976C101.615 119.741 101.226 119.411 100.948 118.984C100.671 118.557 100.532 118.045 100.532 117.448C100.532 117.011 100.612 116.616 100.772 116.264C100.932 115.901 101.156 115.597 101.444 115.352C101.743 115.096 102.095 114.899 102.5 114.76C102.916 114.621 103.38 114.552 103.892 114.552C104.468 114.552 104.986 114.643 105.444 114.824V114.552C105.444 114.232 105.535 113.965 105.716 113.752C105.898 113.539 106.175 113.432 106.548 113.432H108.052V114.808H106.132V115.192C106.495 115.437 106.772 115.752 106.964 116.136C107.156 116.509 107.252 116.947 107.252 117.448C107.252 117.885 107.172 118.285 107.012 118.648C106.852 119 106.623 119.304 106.324 119.56C106.036 119.805 105.684 119.997 105.268 120.136C104.863 120.264 104.404 120.328 103.892 120.328C103.53 120.328 103.188 120.296 102.868 120.232C102.676 120.285 102.484 120.376 102.292 120.504C102.1 120.632 102.004 120.808 102.004 121.032C102.004 121.288 102.127 121.448 102.372 121.512C102.618 121.576 102.922 121.608 103.284 121.608H105.14C106.25 121.608 107.05 121.821 107.54 122.248C108.031 122.664 108.276 123.213 108.276 123.896ZM106.644 124.008C106.644 123.731 106.532 123.507 106.308 123.336C106.084 123.176 105.679 123.096 105.092 123.096H102.228C101.823 123.288 101.62 123.597 101.62 124.024C101.62 124.333 101.748 124.6 102.004 124.824C102.271 125.048 102.708 125.16 103.316 125.16H104.612C105.274 125.16 105.775 125.059 106.116 124.856C106.468 124.664 106.644 124.381 106.644 124.008ZM103.892 119.128C104.458 119.128 104.874 118.995 105.14 118.728C105.407 118.461 105.54 118.104 105.54 117.656V117.224C105.54 116.776 105.407 116.419 105.14 116.152C104.874 115.885 104.458 115.752 103.892 115.752C103.327 115.752 102.911 115.885 102.644 116.152C102.378 116.419 102.244 116.776 102.244 117.224V117.656C102.244 118.104 102.378 118.461 102.644 118.728C102.911 118.995 103.327 119.128 103.892 119.128Z" fill="white"/>
<path d="M1 96H142V138H1V96Z" stroke="#EBEBEB" stroke-width="2"/>
<path d="M201 157H60.0114C60.5428 180.286 79.586 199 103 199H201V157Z" fill="black"/>
<path d="M101.12 184.192C99.7013 184.192 98.6453 183.691 97.952 182.688C97.2693 181.685 96.928 180.261 96.928 178.416C96.928 176.571 97.2693 175.147 97.952 174.144C98.6453 173.141 99.7013 172.64 101.12 172.64C101.664 172.64 102.133 172.715 102.528 172.864C102.933 173.003 103.28 173.2 103.568 173.456C103.856 173.701 104.096 173.995 104.288 174.336C104.491 174.667 104.656 175.024 104.784 175.408L103.168 175.952C103.083 175.696 102.987 175.456 102.88 175.232C102.773 175.008 102.64 174.816 102.48 174.656C102.32 174.496 102.128 174.368 101.904 174.272C101.691 174.176 101.424 174.128 101.104 174.128C100.315 174.128 99.7387 174.432 99.376 175.04C99.0133 175.637 98.832 176.448 98.832 177.472V179.36C98.832 180.384 99.0133 181.2 99.376 181.808C99.7387 182.405 100.315 182.704 101.104 182.704C101.424 182.704 101.691 182.656 101.904 182.56C102.128 182.464 102.32 182.336 102.48 182.176C102.64 182.016 102.773 181.824 102.88 181.6C102.987 181.376 103.083 181.136 103.168 180.88L104.784 181.424C104.656 181.808 104.491 182.171 104.288 182.512C104.096 182.843 103.856 183.136 103.568 183.392C103.28 183.637 102.933 183.835 102.528 183.984C102.133 184.123 101.664 184.192 101.12 184.192ZM110.394 184.192C109.786 184.192 109.236 184.091 108.746 183.888C108.266 183.685 107.855 183.397 107.514 183.024C107.183 182.651 106.927 182.197 106.746 181.664C106.564 181.131 106.474 180.533 106.474 179.872C106.474 179.211 106.564 178.613 106.746 178.08C106.927 177.547 107.183 177.093 107.514 176.72C107.855 176.347 108.266 176.059 108.746 175.856C109.236 175.653 109.786 175.552 110.394 175.552C111.002 175.552 111.546 175.653 112.026 175.856C112.516 176.059 112.927 176.347 113.258 176.72C113.599 177.093 113.86 177.547 114.042 178.08C114.223 178.613 114.314 179.211 114.314 179.872C114.314 180.533 114.223 181.131 114.042 181.664C113.86 182.197 113.599 182.651 113.258 183.024C112.927 183.397 112.516 183.685 112.026 183.888C111.546 184.091 111.002 184.192 110.394 184.192ZM110.394 182.816C111.034 182.816 111.54 182.624 111.914 182.24C112.298 181.845 112.49 181.264 112.49 180.496V179.248C112.49 178.48 112.298 177.904 111.914 177.52C111.54 177.125 111.034 176.928 110.394 176.928C109.754 176.928 109.242 177.125 108.858 177.52C108.484 177.904 108.298 178.48 108.298 179.248V180.496C108.298 181.264 108.484 181.845 108.858 182.24C109.242 182.624 109.754 182.816 110.394 182.816ZM116.532 184V175.744H118.276V177.152H118.356C118.441 176.939 118.548 176.736 118.676 176.544C118.814 176.341 118.98 176.171 119.172 176.032C119.364 175.883 119.588 175.765 119.844 175.68C120.1 175.595 120.398 175.552 120.74 175.552C121.572 175.552 122.244 175.824 122.756 176.368C123.268 176.912 123.524 177.685 123.524 178.688V184H121.78V178.944C121.78 177.632 121.209 176.976 120.068 176.976C119.844 176.976 119.625 177.008 119.411 177.072C119.198 177.125 119.006 177.211 118.836 177.328C118.665 177.445 118.526 177.595 118.42 177.776C118.324 177.957 118.276 178.165 118.276 178.4V184H116.532ZM130.077 184C129.352 184 128.819 183.808 128.477 183.424C128.136 183.029 127.965 182.523 127.965 181.904V177.152H125.421V175.744H127.229C127.539 175.744 127.757 175.685 127.885 175.568C128.013 175.44 128.077 175.216 128.077 174.896V172.832H129.709V175.744H133.229V177.152H129.709V182.592H133.229V184H130.077ZM139.351 184.192C138.722 184.192 138.156 184.091 137.655 183.888C137.154 183.685 136.732 183.397 136.391 183.024C136.05 182.651 135.788 182.203 135.607 181.68C135.426 181.147 135.335 180.549 135.335 179.888C135.335 179.227 135.426 178.629 135.607 178.096C135.799 177.563 136.06 177.109 136.391 176.736C136.732 176.352 137.143 176.059 137.623 175.856C138.103 175.653 138.636 175.552 139.223 175.552C139.799 175.552 140.322 175.653 140.791 175.856C141.26 176.048 141.66 176.325 141.991 176.688C142.322 177.051 142.572 177.483 142.743 177.984C142.924 178.485 143.015 179.04 143.015 179.648V180.304H137.095V180.576C137.095 181.227 137.298 181.76 137.703 182.176C138.108 182.581 138.668 182.784 139.383 182.784C139.916 182.784 140.37 182.672 140.743 182.448C141.127 182.213 141.436 181.904 141.671 181.52L142.759 182.48C142.482 182.96 142.055 183.365 141.479 183.696C140.914 184.027 140.204 184.192 139.351 184.192ZM139.223 176.88C138.914 176.88 138.626 176.933 138.359 177.04C138.103 177.147 137.879 177.301 137.687 177.504C137.506 177.696 137.362 177.925 137.255 178.192C137.148 178.459 137.095 178.752 137.095 179.072V179.184H141.239V179.024C141.239 178.373 141.052 177.856 140.679 177.472C140.316 177.077 139.831 176.88 139.223 176.88ZM148.785 184.192C147.889 184.192 147.115 184.048 146.465 183.76C145.825 183.472 145.307 183.088 144.913 182.608L145.985 181.648C146.347 182.043 146.753 182.347 147.201 182.56C147.659 182.763 148.198 182.864 148.817 182.864C149.382 182.864 149.835 182.768 150.177 182.576C150.529 182.384 150.705 182.085 150.705 181.68C150.705 181.509 150.673 181.365 150.609 181.248C150.545 181.131 150.454 181.035 150.337 180.96C150.219 180.885 150.081 180.827 149.921 180.784C149.771 180.741 149.611 180.709 149.441 180.688L148.129 180.48C147.809 180.437 147.483 180.368 147.153 180.272C146.822 180.176 146.523 180.043 146.257 179.872C146.001 179.691 145.787 179.461 145.617 179.184C145.457 178.907 145.377 178.555 145.377 178.128C145.377 177.285 145.697 176.645 146.337 176.208C146.987 175.771 147.841 175.552 148.897 175.552C149.665 175.552 150.326 175.669 150.881 175.904C151.446 176.128 151.915 176.443 152.289 176.848L151.313 177.872C151.099 177.627 150.795 177.403 150.401 177.2C150.006 176.987 149.483 176.88 148.833 176.88C147.67 176.88 147.089 177.248 147.089 177.984C147.089 178.336 147.211 178.581 147.457 178.72C147.713 178.848 148.011 178.933 148.353 178.976L149.665 179.184C149.995 179.237 150.321 179.307 150.641 179.392C150.971 179.477 151.265 179.611 151.521 179.792C151.787 179.963 152.001 180.187 152.161 180.464C152.331 180.741 152.417 181.093 152.417 181.52C152.417 182.352 152.091 183.008 151.441 183.488C150.801 183.957 149.915 184.192 148.785 184.192ZM158.859 184C158.133 184 157.6 183.808 157.259 183.424C156.917 183.029 156.747 182.523 156.747 181.904V177.152H154.203V175.744H156.011C156.32 175.744 156.539 175.685 156.667 175.568C156.795 175.44 156.859 175.216 156.859 174.896V172.832H158.491V175.744H162.01V177.152H158.491V182.592H162.01V184H158.859ZM167.972 184.192C167.076 184.192 166.303 184.048 165.652 183.76C165.012 183.472 164.495 183.088 164.1 182.608L165.172 181.648C165.535 182.043 165.94 182.347 166.388 182.56C166.847 182.763 167.386 182.864 168.004 182.864C168.57 182.864 169.023 182.768 169.364 182.576C169.716 182.384 169.892 182.085 169.892 181.68C169.892 181.509 169.86 181.365 169.796 181.248C169.732 181.131 169.642 181.035 169.524 180.96C169.407 180.885 169.268 180.827 169.108 180.784C168.959 180.741 168.799 180.709 168.628 180.688L167.316 180.48C166.996 180.437 166.671 180.368 166.34 180.272C166.01 180.176 165.711 180.043 165.444 179.872C165.188 179.691 164.975 179.461 164.804 179.184C164.644 178.907 164.564 178.555 164.564 178.128C164.564 177.285 164.884 176.645 165.524 176.208C166.175 175.771 167.028 175.552 168.084 175.552C168.852 175.552 169.514 175.669 170.068 175.904C170.634 176.128 171.103 176.443 171.476 176.848L170.5 177.872C170.287 177.627 169.983 177.403 169.588 177.2C169.194 176.987 168.671 176.88 168.02 176.88C166.858 176.88 166.276 177.248 166.276 177.984C166.276 178.336 166.399 178.581 166.644 178.72C166.9 178.848 167.199 178.933 167.54 178.976L168.852 179.184C169.183 179.237 169.508 179.307 169.828 179.392C170.159 179.477 170.452 179.611 170.708 179.792C170.975 179.963 171.188 180.187 171.348 180.464C171.519 180.741 171.604 181.093 171.604 181.52C171.604 182.352 171.279 183.008 170.628 183.488C169.988 183.957 169.103 184.192 167.972 184.192Z" fill="white"/>
<path d="M201 157H60.0114C60.5428 180.286 79.586 199 103 199H201V157Z" stroke="#EBEBEB" stroke-width="2"/>
</svg>
