<svg width="261" height="98" viewBox="0 0 261 98" fill="none" xmlns="http://www.w3.org/2000/svg">
<g clip-path="url(#clip0_2_2)">
<path fill-rule="evenodd" clip-rule="evenodd" d="M261 27V0L245 17.5365L237.221 27H18.14L9.5 37.0469L0 47V98H261V37V27Z" fill="#E8E8E8"/>
<path d="M39.4428 54.3748H36.7363C34.1205 54.3748 32 56.4953 32 59.1111C32 61.7269 34.1205 63.8474 36.7363 63.8474H39.4428C42.0586 63.8474 44.1791 61.7269 44.1791 59.1111C44.1791 56.4953 42.0586 54.3748 39.4428 54.3748Z" fill="#0E0E0E"/>
<path d="M65.1554 54.3748H51.623C49.0072 54.3748 46.8867 56.4953 46.8867 59.1111C46.8867 61.7269 49.0072 63.8474 51.623 63.8474H65.1554C67.7712 63.8474 69.8917 61.7269 69.8917 59.1111C69.8917 56.4953 67.7712 54.3748 65.1554 54.3748Z" fill="#0E0E0E"/>
<path d="M173.846 74.9679L232.035 74.9678" stroke="#0E0E0E" stroke-width="1.35323"/>
<path d="M85.2227 51.0469V61H83.3496V51.0469H85.2227ZM88.3125 51.0469V52.5303H80.2939V51.0469H88.3125ZM91.1973 50.5V61H89.3857V50.5H91.1973ZM90.9102 57.0352H90.377C90.377 56.5202 90.4453 56.0462 90.582 55.6133C90.7188 55.1803 90.9124 54.8044 91.1631 54.4854C91.4137 54.1618 91.7122 53.9111 92.0586 53.7334C92.4095 53.5557 92.7969 53.4668 93.2207 53.4668C93.5853 53.4668 93.9157 53.5192 94.2119 53.624C94.5127 53.7243 94.7702 53.8861 94.9844 54.1094C95.1986 54.3327 95.3626 54.6243 95.4766 54.9844C95.5951 55.3398 95.6543 55.7728 95.6543 56.2832V61H93.8359V56.2695C93.8359 55.9277 93.7858 55.6589 93.6855 55.4629C93.5853 55.2624 93.4417 55.1188 93.2549 55.0322C93.0726 54.9456 92.847 54.9023 92.5781 54.9023C92.2865 54.9023 92.0358 54.9593 91.8262 55.0732C91.6165 55.1826 91.4434 55.3353 91.3066 55.5312C91.1745 55.7272 91.0742 55.9528 91.0059 56.208C90.9421 56.4632 90.9102 56.7389 90.9102 57.0352ZM100.569 61.1367C100.009 61.1367 99.5052 61.0456 99.0586 60.8633C98.612 60.681 98.2314 60.4281 97.917 60.1045C97.6071 59.7764 97.3678 59.3958 97.1992 58.9629C97.0352 58.5254 96.9531 58.056 96.9531 57.5547V57.2812C96.9531 56.7116 97.0352 56.1943 97.1992 55.7295C97.3633 55.2601 97.5957 54.8568 97.8965 54.5195C98.1973 54.1823 98.5573 53.9225 98.9766 53.7402C99.3958 53.5579 99.8584 53.4668 100.364 53.4668C100.888 53.4668 101.351 53.5557 101.752 53.7334C102.153 53.9066 102.488 54.1527 102.757 54.4717C103.026 54.7907 103.229 55.1735 103.365 55.6201C103.502 56.0622 103.57 56.5521 103.57 57.0898V57.8486H97.7734V56.6045H101.793V56.4678C101.784 56.1807 101.729 55.9186 101.629 55.6816C101.529 55.4401 101.374 55.2487 101.164 55.1074C100.954 54.9616 100.683 54.8887 100.351 54.8887C100.082 54.8887 99.847 54.9479 99.6465 55.0664C99.4505 55.1803 99.2865 55.3444 99.1543 55.5586C99.0267 55.7682 98.931 56.0189 98.8672 56.3105C98.8034 56.6022 98.7715 56.9258 98.7715 57.2812V57.5547C98.7715 57.8646 98.8125 58.1517 98.8945 58.416C98.9811 58.6803 99.1064 58.9105 99.2705 59.1064C99.4391 59.2979 99.6396 59.4482 99.8721 59.5576C100.109 59.6624 100.378 59.7148 100.679 59.7148C101.057 59.7148 101.399 59.6419 101.704 59.4961C102.014 59.3457 102.283 59.1247 102.511 58.833L103.42 59.7764C103.265 60.0042 103.055 60.223 102.791 60.4326C102.531 60.6423 102.217 60.8132 101.848 60.9453C101.479 61.0729 101.052 61.1367 100.569 61.1367ZM112.334 51.0469V61H110.461V51.0469H112.334ZM115.424 51.0469V52.5303H107.405V51.0469H115.424ZM120.284 59.0518L122.766 51.0469H124.851L121.337 61H119.949L120.284 59.0518ZM117.994 51.0469L120.462 59.0518L120.817 61H119.416L115.916 51.0469H117.994ZM131.085 58.416C131.085 58.2246 131.055 58.0537 130.996 57.9033C130.941 57.7484 130.839 57.6094 130.688 57.4863C130.543 57.3587 130.335 57.2357 130.066 57.1172C129.802 56.9941 129.46 56.8665 129.041 56.7344C128.576 56.5885 128.143 56.4245 127.742 56.2422C127.341 56.0599 126.988 55.848 126.683 55.6064C126.382 55.3649 126.147 55.0869 125.979 54.7725C125.81 54.4535 125.726 54.0843 125.726 53.665C125.726 53.2549 125.812 52.8812 125.985 52.5439C126.163 52.2067 126.414 51.9173 126.737 51.6758C127.061 51.4297 127.441 51.2406 127.879 51.1084C128.321 50.9762 128.809 50.9102 129.342 50.9102C130.08 50.9102 130.718 51.0446 131.256 51.3135C131.798 51.5824 132.217 51.9469 132.514 52.4072C132.81 52.8675 132.958 53.3848 132.958 53.959H131.085C131.085 53.6491 131.019 53.3757 130.887 53.1387C130.759 52.9017 130.563 52.7148 130.299 52.5781C130.039 52.4414 129.711 52.373 129.314 52.373C128.932 52.373 128.613 52.43 128.357 52.5439C128.107 52.6579 127.918 52.8128 127.79 53.0088C127.667 53.2048 127.605 53.4235 127.605 53.665C127.605 53.8473 127.649 54.0114 127.735 54.1572C127.822 54.2985 127.952 54.4329 128.125 54.5605C128.298 54.6836 128.512 54.7998 128.768 54.9092C129.027 55.014 129.328 55.1188 129.67 55.2236C130.217 55.3877 130.695 55.57 131.105 55.7705C131.52 55.971 131.864 56.1989 132.138 56.4541C132.416 56.7093 132.623 56.9964 132.76 57.3154C132.901 57.6344 132.972 57.9967 132.972 58.4023C132.972 58.8307 132.887 59.2135 132.719 59.5508C132.55 59.888 132.309 60.1751 131.994 60.4121C131.68 60.6491 131.301 60.8291 130.859 60.9521C130.422 61.0752 129.932 61.1367 129.39 61.1367C128.907 61.1367 128.428 61.0729 127.954 60.9453C127.485 60.8132 127.059 60.6172 126.676 60.3574C126.293 60.0931 125.988 59.7604 125.76 59.3594C125.532 58.9538 125.418 58.4798 125.418 57.9375H127.305C127.305 58.252 127.355 58.5208 127.455 58.7441C127.56 58.9629 127.706 59.1429 127.893 59.2842C128.084 59.4209 128.307 59.5212 128.562 59.585C128.818 59.6488 129.093 59.6807 129.39 59.6807C129.772 59.6807 130.087 59.6283 130.333 59.5234C130.584 59.4141 130.771 59.2637 130.894 59.0723C131.021 58.8809 131.085 58.6621 131.085 58.416ZM143.116 58.416C143.116 58.2246 143.087 58.0537 143.027 57.9033C142.973 57.7484 142.87 57.6094 142.72 57.4863C142.574 57.3587 142.367 57.2357 142.098 57.1172C141.833 56.9941 141.492 56.8665 141.072 56.7344C140.607 56.5885 140.174 56.4245 139.773 56.2422C139.372 56.0599 139.019 55.848 138.714 55.6064C138.413 55.3649 138.178 55.0869 138.01 54.7725C137.841 54.4535 137.757 54.0843 137.757 53.665C137.757 53.2549 137.843 52.8812 138.017 52.5439C138.194 52.2067 138.445 51.9173 138.769 51.6758C139.092 51.4297 139.473 51.2406 139.91 51.1084C140.352 50.9762 140.84 50.9102 141.373 50.9102C142.111 50.9102 142.749 51.0446 143.287 51.3135C143.829 51.5824 144.249 51.9469 144.545 52.4072C144.841 52.8675 144.989 53.3848 144.989 53.959H143.116C143.116 53.6491 143.05 53.3757 142.918 53.1387C142.79 52.9017 142.594 52.7148 142.33 52.5781C142.07 52.4414 141.742 52.373 141.346 52.373C140.963 52.373 140.644 52.43 140.389 52.5439C140.138 52.6579 139.949 52.8128 139.821 53.0088C139.698 53.2048 139.637 53.4235 139.637 53.665C139.637 53.8473 139.68 54.0114 139.767 54.1572C139.853 54.2985 139.983 54.4329 140.156 54.5605C140.329 54.6836 140.544 54.7998 140.799 54.9092C141.059 55.014 141.359 55.1188 141.701 55.2236C142.248 55.3877 142.727 55.57 143.137 55.7705C143.551 55.971 143.896 56.1989 144.169 56.4541C144.447 56.7093 144.654 56.9964 144.791 57.3154C144.932 57.6344 145.003 57.9967 145.003 58.4023C145.003 58.8307 144.919 59.2135 144.75 59.5508C144.581 59.888 144.34 60.1751 144.025 60.4121C143.711 60.6491 143.333 60.8291 142.891 60.9521C142.453 61.0752 141.963 61.1367 141.421 61.1367C140.938 61.1367 140.459 61.0729 139.985 60.9453C139.516 60.8132 139.09 60.6172 138.707 60.3574C138.324 60.0931 138.019 59.7604 137.791 59.3594C137.563 58.9538 137.449 58.4798 137.449 57.9375H139.336C139.336 58.252 139.386 58.5208 139.486 58.7441C139.591 58.9629 139.737 59.1429 139.924 59.2842C140.115 59.4209 140.339 59.5212 140.594 59.585C140.849 59.6488 141.125 59.6807 141.421 59.6807C141.804 59.6807 142.118 59.6283 142.364 59.5234C142.615 59.4141 142.802 59.2637 142.925 59.0723C143.052 58.8809 143.116 58.6621 143.116 58.416ZM149.351 59.7148C149.606 59.7148 149.834 59.6647 150.034 59.5645C150.235 59.4642 150.394 59.3229 150.513 59.1406C150.636 58.9583 150.702 58.7464 150.711 58.5049H152.413C152.404 59.0062 152.263 59.4551 151.989 59.8516C151.716 60.248 151.351 60.5625 150.896 60.7949C150.444 61.0228 149.938 61.1367 149.378 61.1367C148.808 61.1367 148.312 61.041 147.888 60.8496C147.464 60.6582 147.111 60.3916 146.828 60.0498C146.55 59.708 146.34 59.3115 146.199 58.8604C146.062 58.4092 145.994 57.9261 145.994 57.4111V57.1924C145.994 56.6774 146.062 56.1943 146.199 55.7432C146.34 55.292 146.55 54.8955 146.828 54.5537C147.111 54.2119 147.464 53.9453 147.888 53.7539C148.312 53.5625 148.806 53.4668 149.371 53.4668C149.968 53.4668 150.492 53.583 150.943 53.8154C151.399 54.0479 151.755 54.376 152.01 54.7998C152.27 55.2236 152.404 55.7227 152.413 56.2969H150.711C150.702 56.0326 150.643 55.7956 150.533 55.5859C150.424 55.3763 150.269 55.2077 150.068 55.0801C149.868 54.9525 149.624 54.8887 149.337 54.8887C149.032 54.8887 148.776 54.9525 148.571 55.0801C148.371 55.2077 148.214 55.3831 148.1 55.6064C147.99 55.8252 147.913 56.0713 147.867 56.3447C147.826 56.6136 147.806 56.8962 147.806 57.1924V57.4111C147.806 57.7119 147.826 57.999 147.867 58.2725C147.913 58.5459 147.99 58.792 148.1 59.0107C148.214 59.2249 148.371 59.3958 148.571 59.5234C148.776 59.651 149.036 59.7148 149.351 59.7148ZM155.387 50.5V61H153.575V50.5H155.387ZM155.1 57.0352H154.566C154.566 56.5202 154.635 56.0462 154.771 55.6133C154.908 55.1803 155.102 54.8044 155.353 54.4854C155.603 54.1618 155.902 53.9111 156.248 53.7334C156.599 53.5557 156.986 53.4668 157.41 53.4668C157.775 53.4668 158.105 53.5192 158.401 53.624C158.702 53.7243 158.96 53.8861 159.174 54.1094C159.388 54.3327 159.552 54.6243 159.666 54.9844C159.785 55.3398 159.844 55.7728 159.844 56.2832V61H158.025V56.2695C158.025 55.9277 157.975 55.6589 157.875 55.4629C157.775 55.2624 157.631 55.1188 157.444 55.0322C157.262 54.9456 157.036 54.9023 156.768 54.9023C156.476 54.9023 156.225 54.9593 156.016 55.0732C155.806 55.1826 155.633 55.3353 155.496 55.5312C155.364 55.7272 155.264 55.9528 155.195 56.208C155.132 56.4632 155.1 56.7389 155.1 57.0352ZM161.115 57.377V57.2334C161.115 56.6911 161.193 56.1921 161.348 55.7363C161.503 55.276 161.728 54.8773 162.024 54.54C162.321 54.2028 162.683 53.9408 163.111 53.7539C163.54 53.5625 164.027 53.4668 164.574 53.4668C165.13 53.4668 165.622 53.5625 166.051 53.7539C166.484 53.9408 166.848 54.2028 167.145 54.54C167.441 54.8773 167.666 55.276 167.821 55.7363C167.976 56.1921 168.054 56.6911 168.054 57.2334V57.377C168.054 57.9147 167.976 58.4137 167.821 58.874C167.666 59.3298 167.441 59.7285 167.145 60.0703C166.848 60.4076 166.486 60.6696 166.058 60.8564C165.629 61.0433 165.139 61.1367 164.588 61.1367C164.041 61.1367 163.551 61.0433 163.118 60.8564C162.685 60.6696 162.321 60.4076 162.024 60.0703C161.728 59.7285 161.503 59.3298 161.348 58.874C161.193 58.4137 161.115 57.9147 161.115 57.377ZM162.92 57.2334V57.377C162.92 57.7005 162.952 58.0036 163.016 58.2861C163.079 58.5687 163.177 58.8171 163.31 59.0312C163.442 59.2454 163.613 59.4141 163.822 59.5371C164.036 59.6556 164.292 59.7148 164.588 59.7148C164.88 59.7148 165.13 59.6556 165.34 59.5371C165.549 59.4141 165.72 59.2454 165.853 59.0312C165.989 58.8171 166.09 58.5687 166.153 58.2861C166.217 58.0036 166.249 57.7005 166.249 57.377V57.2334C166.249 56.9144 166.217 56.6159 166.153 56.3379C166.09 56.0553 165.989 55.807 165.853 55.5928C165.72 55.374 165.547 55.2031 165.333 55.0801C165.123 54.9525 164.87 54.8887 164.574 54.8887C164.283 54.8887 164.032 54.9525 163.822 55.0801C163.613 55.2031 163.442 55.374 163.31 55.5928C163.177 55.807 163.079 56.0553 163.016 56.3379C162.952 56.6159 162.92 56.9144 162.92 57.2334ZM169.045 57.377V57.2334C169.045 56.6911 169.122 56.1921 169.277 55.7363C169.432 55.276 169.658 54.8773 169.954 54.54C170.25 54.2028 170.613 53.9408 171.041 53.7539C171.469 53.5625 171.957 53.4668 172.504 53.4668C173.06 53.4668 173.552 53.5625 173.98 53.7539C174.413 53.9408 174.778 54.2028 175.074 54.54C175.37 54.8773 175.596 55.276 175.751 55.7363C175.906 56.1921 175.983 56.6911 175.983 57.2334V57.377C175.983 57.9147 175.906 58.4137 175.751 58.874C175.596 59.3298 175.37 59.7285 175.074 60.0703C174.778 60.4076 174.416 60.6696 173.987 60.8564C173.559 61.0433 173.069 61.1367 172.518 61.1367C171.971 61.1367 171.481 61.0433 171.048 60.8564C170.615 60.6696 170.25 60.4076 169.954 60.0703C169.658 59.7285 169.432 59.3298 169.277 58.874C169.122 58.4137 169.045 57.9147 169.045 57.377ZM170.85 57.2334V57.377C170.85 57.7005 170.882 58.0036 170.945 58.2861C171.009 58.5687 171.107 58.8171 171.239 59.0312C171.371 59.2454 171.542 59.4141 171.752 59.5371C171.966 59.6556 172.221 59.7148 172.518 59.7148C172.809 59.7148 173.06 59.6556 173.27 59.5371C173.479 59.4141 173.65 59.2454 173.782 59.0312C173.919 58.8171 174.019 58.5687 174.083 58.2861C174.147 58.0036 174.179 57.7005 174.179 57.377V57.2334C174.179 56.9144 174.147 56.6159 174.083 56.3379C174.019 56.0553 173.919 55.807 173.782 55.5928C173.65 55.374 173.477 55.2031 173.263 55.0801C173.053 54.9525 172.8 54.8887 172.504 54.8887C172.212 54.8887 171.962 54.9525 171.752 55.0801C171.542 55.2031 171.371 55.374 171.239 55.5928C171.107 55.807 171.009 56.0553 170.945 56.3379C170.882 56.6159 170.85 56.9144 170.85 57.2334ZM179.21 50.5V61H177.398V50.5H179.21ZM80.8301 69.4961C81.3997 69.4049 81.8978 69.3594 82.3242 69.3594C82.7539 69.3594 83.1169 69.3903 83.4131 69.4521C83.7126 69.514 83.9648 69.597 84.1699 69.7012C84.3783 69.8021 84.5459 69.9176 84.6729 70.0479C84.7998 70.1781 84.8975 70.3132 84.9658 70.4531C85.0798 70.681 85.1367 70.9186 85.1367 71.166C85.1367 71.4134 85.0993 71.6396 85.0244 71.8447C84.9528 72.0465 84.8486 72.2516 84.7119 72.46C84.5752 72.6683 84.4076 72.8848 84.209 73.1094L83.5449 73.8418L82.2754 75.1406H85.1318V76H80.6641V75.5508L82.7295 73.4561L83.3887 72.7578C83.7565 72.3542 83.9876 72.0124 84.082 71.7324C84.1341 71.5827 84.1602 71.4411 84.1602 71.3076C84.1602 71.1709 84.1406 71.0423 84.1016 70.9219C84.0625 70.8014 83.9795 70.6908 83.8525 70.5898C83.5563 70.349 83.0876 70.2285 82.4463 70.2285C81.805 70.2285 81.2663 70.2969 80.8301 70.4336V69.4961ZM86.5283 74.9697C86.971 75.0934 87.5081 75.1553 88.1396 75.1553C88.7712 75.1553 89.248 75.0544 89.5703 74.8525C89.8958 74.6475 90.0586 74.3219 90.0586 73.876C90.0586 73.4691 89.9219 73.1729 89.6484 72.9873C89.3327 72.7692 88.807 72.6602 88.0713 72.6602H86.709V69.3789H90.7178V70.2969H87.6465V71.8398H88.2178C89.2041 71.8398 89.9219 71.9993 90.3711 72.3184C90.8333 72.6471 91.0645 73.1729 91.0645 73.8955C91.0645 74.5303 90.8333 75.0365 90.3711 75.4141C89.8633 75.834 89.1178 76.0439 88.1348 76.0439C87.4154 76.0439 86.8799 76.0016 86.5283 75.917V74.9697ZM94.248 75.2285C94.3555 75.2676 94.5182 75.2871 94.7363 75.2871C94.9544 75.2871 95.1367 75.2611 95.2832 75.209V75.9902C95.2148 76.0065 95.1156 76.0163 94.9854 76.0195L94.6777 76.0293C94.6094 76.0293 94.5573 76.0293 94.5215 76.0293C93.8932 76.0293 93.4294 75.8242 93.1299 75.4141C92.889 75.082 92.7686 74.6426 92.7686 74.0957V71.708H92.0459V71.249L92.7686 70.9609L93.0029 69.7109H93.7451V70.9609H95.3076V71.708H93.7451V74.0908C93.7451 74.7288 93.9128 75.1081 94.248 75.2285ZM98.8721 71.7227C98.3903 71.7227 97.9606 71.887 97.583 72.2158V76H96.6064V68.7344H97.583V71.5029C98.1104 71.0895 98.6556 70.8828 99.2188 70.8828C99.821 70.8828 100.262 71.0618 100.542 71.4199C100.835 71.7975 100.981 72.4062 100.981 73.2461V76H100.005V73.2461C100.005 72.4388 99.7852 71.957 99.3457 71.8008C99.2057 71.7487 99.0479 71.7227 98.8721 71.7227ZM105.757 69.2031H106.46L110.01 74.2178L109.956 73.5146V69.2031H110.923V76H110.225L107.261 71.835L106.67 70.9854L106.724 71.835V76H105.757V69.2031ZM112.109 73.4707C112.109 72.6797 112.362 72.0384 112.866 71.5469C113.338 71.0879 113.923 70.8584 114.619 70.8584C115.303 70.8584 115.874 71.0879 116.333 71.5469C116.821 72.0352 117.065 72.6764 117.065 73.4707C117.065 74.2617 116.82 74.8997 116.328 75.3848C115.863 75.847 115.291 76.0781 114.614 76.0781C113.927 76.0781 113.345 75.847 112.866 75.3848C112.362 74.8997 112.109 74.2617 112.109 73.4707ZM113.125 73.4707C113.125 74.304 113.392 74.8704 113.926 75.1699C114.115 75.2741 114.341 75.3262 114.604 75.3262C114.868 75.3262 115.091 75.2741 115.273 75.1699C115.456 75.0625 115.605 74.9225 115.723 74.75C115.941 74.418 116.05 73.9915 116.05 73.4707C116.05 72.6439 115.788 72.0775 115.264 71.7715C115.081 71.6641 114.863 71.6104 114.609 71.6104C114.355 71.6104 114.134 71.6641 113.945 71.7715C113.76 71.8757 113.607 72.014 113.486 72.1865C113.245 72.5251 113.125 72.9531 113.125 73.4707ZM117.578 70.9609H118.628L120 75.0479L121.377 70.9609H122.422L120.493 76H119.512L117.578 70.9609ZM125.61 76.0781C123.768 76.0781 122.847 75.1781 122.847 73.3779C122.847 72.6032 123.102 71.9831 123.613 71.5176C124.072 71.0944 124.596 70.8828 125.186 70.8828C125.827 70.8828 126.328 71.0977 126.689 71.5273C127.025 71.9277 127.192 72.4632 127.192 73.1338V73.5146H123.862C123.862 74.4359 124.238 74.999 124.99 75.2041C125.169 75.2529 125.444 75.2773 125.815 75.2773C126.19 75.2773 126.556 75.2269 126.914 75.126V75.9512C126.556 76.0358 126.121 76.0781 125.61 76.0781ZM126.216 72.7969C126.216 72.4844 126.13 72.2207 125.957 72.0059C125.755 71.7585 125.477 71.6348 125.122 71.6348C124.748 71.6348 124.443 71.7536 124.209 71.9912C123.994 72.2126 123.887 72.4811 123.887 72.7969H126.216ZM129.263 72.2158L129.268 76H128.291V70.9609H129.189L129.258 71.5127C129.616 71.2132 130.033 71.0179 130.508 70.9268C130.661 70.8975 130.811 70.8828 130.957 70.8828C131.566 70.8828 132.025 71.14 132.334 71.6543C132.9 71.14 133.493 70.8828 134.111 70.8828C134.723 70.8828 135.169 71.0667 135.449 71.4346C135.729 71.8089 135.869 72.4274 135.869 73.29V76H134.893V73.3242C134.893 72.4779 134.689 71.9717 134.282 71.8057C134.146 71.7503 133.986 71.7227 133.804 71.7227C133.368 71.7227 132.967 71.8789 132.603 72.1914V76H131.626V73.2852C131.626 72.7057 131.54 72.2988 131.367 72.0645C131.201 71.8366 130.903 71.7227 130.474 71.7227C130.047 71.7227 129.644 71.887 129.263 72.2158ZM140.962 75.4385C140.682 75.6566 140.365 75.8177 140.01 75.9219C139.658 76.0228 139.277 76.0732 138.867 76.0732C138.46 76.0732 138.005 76.0488 137.5 76V68.7344H138.477V71.4639C138.691 71.2197 138.989 71.0456 139.37 70.9414C139.513 70.9023 139.66 70.8828 139.81 70.8828C139.963 70.8828 140.117 70.8991 140.273 70.9316C140.43 70.9609 140.584 71.013 140.737 71.0879C140.894 71.1628 141.042 71.262 141.182 71.3857C141.322 71.5094 141.445 71.6641 141.553 71.8496C141.79 72.2467 141.909 72.7188 141.909 73.2656C141.909 73.8092 141.821 74.252 141.646 74.5938C141.473 74.9355 141.245 75.2171 140.962 75.4385ZM138.481 75.2822C138.573 75.3083 138.752 75.3213 139.019 75.3213C139.285 75.3213 139.536 75.2839 139.771 75.209C140.005 75.1341 140.205 75.0169 140.371 74.8574C140.719 74.5221 140.894 74.0225 140.894 73.3584C140.894 72.5479 140.658 72.0173 140.186 71.7666C140.016 71.6787 139.844 71.6348 139.668 71.6348C139.492 71.6348 139.339 71.6576 139.209 71.7031C139.079 71.7487 138.965 71.804 138.867 71.8691C138.682 71.9961 138.553 72.1328 138.481 72.2793V75.2822ZM145.61 76.0781C143.768 76.0781 142.847 75.1781 142.847 73.3779C142.847 72.6032 143.102 71.9831 143.613 71.5176C144.072 71.0944 144.596 70.8828 145.186 70.8828C145.827 70.8828 146.328 71.0977 146.689 71.5273C147.025 71.9277 147.192 72.4632 147.192 73.1338V73.5146H143.862C143.862 74.4359 144.238 74.999 144.99 75.2041C145.169 75.2529 145.444 75.2773 145.815 75.2773C146.19 75.2773 146.556 75.2269 146.914 75.126V75.9512C146.556 76.0358 146.121 76.0781 145.61 76.0781ZM146.216 72.7969C146.216 72.4844 146.13 72.2207 145.957 72.0059C145.755 71.7585 145.477 71.6348 145.122 71.6348C144.748 71.6348 144.443 71.7536 144.209 71.9912C143.994 72.2126 143.887 72.4811 143.887 72.7969H146.216ZM151.47 71.8545C151.291 71.8024 151.076 71.7764 150.825 71.7764C150.578 71.7764 150.374 71.8024 150.215 71.8545C150.055 71.9033 149.915 71.9635 149.795 72.0352C149.574 72.1654 149.412 72.3118 149.312 72.4746V76H148.335V70.9609H149.272L149.312 71.6592C149.556 71.3532 149.912 71.1237 150.381 70.9707C150.55 70.9121 150.744 70.8828 150.962 70.8828C151.18 70.8828 151.349 70.8991 151.47 70.9316V71.8545Z" fill="black"/>
</g>
<defs>
<clipPath id="clip0_2_2">
<rect width="261" height="98" fill="white"/>
</clipPath>
</defs>
</svg>
