<svg width="201" height="87" viewBox="0 0 201 87" fill="none" xmlns="http://www.w3.org/2000/svg">
<g clip-path="url(#clip0_1_2)">
<path d="M200.5 0.5H0.5V86H200.5V0.5Z" fill="black"/>
<path d="M24.6782 69.25C24.6782 74.118 21.0223 78 16.5891 78C12.1559 78 8.5 74.118 8.5 69.25C8.5 64.382 12.1559 60.5 16.5891 60.5C21.0223 60.5 24.6782 64.382 24.6782 69.25Z" stroke="#E8E8E8" stroke-opacity="0.55"/>
<path d="M31.2856 69.25C31.2856 74.118 27.6297 78 23.1965 78C18.7633 78 15.1074 74.118 15.1074 69.25C15.1074 64.382 18.7633 60.5 23.1965 60.5C27.6297 60.5 31.2856 64.382 31.2856 69.25Z" stroke="#E8E8E8" stroke-opacity="0.55"/>
<path d="M37.893 69.25C37.893 74.118 34.2372 78 29.8039 78C25.3707 78 21.7148 74.118 21.7148 69.25C21.7148 64.382 25.3707 60.5 29.8039 60.5C34.2372 60.5 37.893 64.382 37.893 69.25Z" stroke="#E8E8E8" stroke-opacity="0.55"/>
<path d="M44.4985 69.25C44.4985 74.118 40.8426 78 36.4094 78C31.9762 78 28.3203 74.118 28.3203 69.25C28.3203 64.382 31.9762 60.5 36.4094 60.5C40.8426 60.5 44.4985 64.382 44.4985 69.25Z" stroke="#E8E8E8" stroke-opacity="0.55"/>
<path d="M53 68.75H102" stroke="#E8E8E8" stroke-opacity="0.5" stroke-dasharray="2 2"/>
<path d="M113.57 60.25H110V78.25H113.57V60.25Z" fill="#D9D9D9"/>
<path d="M119.698 60.25H114.938V78.25H119.698V60.25Z" fill="#D9D9D9"/>
<path d="M128.205 60.25H121.064V78.25H128.205V60.25Z" fill="#D9D9D9"/>
<path d="M140.283 60.25H129.572V78.25H140.283V60.25Z" fill="#D9D9D9"/>
<path d="M159.5 60.25H141.648V78.25H159.5V60.25Z" fill="#D9D9D9"/>
<path d="M193 60.25H160.867V78.25H193V60.25Z" fill="#D9D9D9"/>
<path d="M200.5 0.5H0.5V86H200.5V0.5Z" stroke="#313131"/>
<path d="M8.968 28V11.94H12.642L15.216 23.006H15.304V11.94H18.032V28H14.358L11.784 16.934H11.696V28H8.968ZM24.5 28.22C23.312 28.22 22.3587 27.978 21.64 27.494C20.936 26.9953 20.4227 26.1887 20.1 25.074C19.792 23.9593 19.638 22.478 19.638 20.63V19.31C19.638 17.4473 19.792 15.966 20.1 14.866C20.4227 13.7513 20.936 12.952 21.64 12.468C22.3587 11.9693 23.312 11.72 24.5 11.72C25.688 11.72 26.634 11.9693 27.338 12.468C28.0567 12.952 28.57 13.7513 28.878 14.866C29.2007 15.966 29.362 17.4473 29.362 19.31V20.63C29.362 22.478 29.2007 23.9593 28.878 25.074C28.57 26.1887 28.0567 26.9953 27.338 27.494C26.634 27.978 25.688 28.22 24.5 28.22ZM24.5 25.778C25.0573 25.778 25.4753 25.6387 25.754 25.36C26.0473 25.0667 26.2527 24.5387 26.37 23.776C26.4873 22.9987 26.546 21.884 26.546 20.432V19.508C26.546 18.056 26.4873 16.9487 26.37 16.186C26.2527 15.4087 26.0473 14.8807 25.754 14.602C25.4753 14.3087 25.0573 14.162 24.5 14.162C23.9573 14.162 23.5393 14.3087 23.246 14.602C22.9527 14.8807 22.7473 15.4087 22.63 16.186C22.5127 16.9487 22.454 18.056 22.454 19.508V20.432C22.454 21.884 22.5127 22.9987 22.63 23.776C22.7473 24.5387 22.9527 25.0667 23.246 25.36C23.5393 25.6387 23.9573 25.778 24.5 25.778ZM33.916 28L30.198 11.94H32.97L35.456 24.304H35.544L38.03 11.94H40.802L37.084 28H33.916ZM42.562 28V11.94H50.592V14.272H45.356V18.364H50.372V20.652H45.356V25.668H50.592V28H42.562ZM52.726 28V11.94H56.598L57.456 19.662H57.544L58.402 11.94H62.274V28H59.634L59.832 16.296H59.744L58.556 24.92H56.444L55.256 16.296H55.168L55.366 28H52.726ZM67.598 28.22C67.1727 28.22 66.6667 28.198 66.08 28.154C65.508 28.1247 64.8773 28.0587 64.188 27.956V11.984C64.892 11.8813 65.53 11.8153 66.102 11.786C66.674 11.742 67.1727 11.72 67.598 11.72C69.4313 11.72 70.7953 12.0427 71.69 12.688C72.5847 13.3333 73.032 14.316 73.032 15.636C73.032 16.5747 72.812 17.3667 72.372 18.012C71.9467 18.6573 71.338 19.09 70.546 19.31V19.398C71.4993 19.5887 72.2253 20.036 72.724 20.74C73.2227 21.444 73.472 22.3753 73.472 23.534C73.472 25.1327 72.988 26.3133 72.02 27.076C71.0667 27.8387 69.5927 28.22 67.598 28.22ZM66.432 25.514C66.6373 25.6167 66.85 25.6973 67.07 25.756C67.3047 25.8 67.5907 25.822 67.928 25.822C68.8667 25.822 69.556 25.6093 69.996 25.184C70.436 24.7587 70.656 24.106 70.656 23.226C70.656 22.3313 70.4287 21.6787 69.974 21.268C69.5193 20.8573 68.8007 20.652 67.818 20.652H65.552V18.364H67.532C68.4707 18.364 69.1527 18.1953 69.578 17.858C70.018 17.5207 70.238 16.978 70.238 16.23C70.238 15.5113 70.0473 14.9833 69.666 14.646C69.2993 14.294 68.72 14.118 67.928 14.118C67.6493 14.118 67.3853 14.14 67.136 14.184C66.8867 14.228 66.652 14.3087 66.432 14.426L66.916 13.568V26.372L66.432 25.514ZM75.562 28V11.94H83.592V14.272H78.356V18.364H83.372V20.652H78.356V25.668H83.592V28H75.562ZM86.254 11.984C86.9287 11.8813 87.5153 11.8153 88.014 11.786C88.5273 11.742 89.0113 11.72 89.466 11.72C90.874 11.72 92.0033 11.896 92.854 12.248C93.7193 12.5853 94.3427 13.1353 94.724 13.898C95.12 14.6607 95.318 15.6653 95.318 16.912C95.318 18.1587 95.12 19.1633 94.724 19.926C94.3427 20.6887 93.7193 21.246 92.854 21.598C92.0033 21.9353 90.874 22.104 89.466 22.104C89.0993 22.104 88.74 22.0967 88.388 22.082C88.036 22.0527 87.7133 22.0233 87.42 21.994L88.344 19.64C88.608 19.684 88.8573 19.7133 89.092 19.728C89.3267 19.7427 89.5393 19.75 89.73 19.75C90.434 19.75 90.984 19.662 91.38 19.486C91.7907 19.2953 92.084 19.002 92.26 18.606C92.4507 18.1953 92.546 17.6527 92.546 16.978C92.546 16.2887 92.4507 15.746 92.26 15.35C92.084 14.9393 91.7907 14.646 91.38 14.47C90.984 14.2793 90.434 14.184 89.73 14.184C89.5393 14.184 89.3267 14.1913 89.092 14.206C88.872 14.2207 88.6153 14.25 88.322 14.294L88.982 13.546V28H86.254V11.984ZM92.48 28L88.388 20.916H91.358L95.538 28H92.48ZM98.882 17.66L100.774 11.06H104.118L101.456 17.66H98.882ZM108.188 25.646C109.215 24.502 110.087 23.49 110.806 22.61C111.525 21.73 112.104 20.938 112.544 20.234C112.984 19.5153 113.299 18.87 113.49 18.298C113.695 17.7113 113.798 17.154 113.798 16.626C113.798 15.79 113.615 15.174 113.248 14.778C112.881 14.382 112.309 14.184 111.532 14.184C111.019 14.184 110.491 14.25 109.948 14.382C109.42 14.514 108.833 14.7193 108.188 14.998V12.468C109.288 11.9693 110.608 11.72 112.148 11.72C113.703 11.72 114.847 12.094 115.58 12.842C116.313 13.5753 116.68 14.734 116.68 16.318C116.68 16.9927 116.585 17.682 116.394 18.386C116.203 19.09 115.91 19.8233 115.514 20.586C115.118 21.3487 114.619 22.1407 114.018 22.962C113.417 23.7833 112.698 24.6487 111.862 25.558V25.646H116.812V28H108.188V25.646ZM123.016 28.22C122.444 28.22 121.843 28.176 121.212 28.088C120.581 28 119.958 27.868 119.342 27.692V25.14C119.826 25.316 120.244 25.4553 120.596 25.558C120.948 25.6607 121.271 25.734 121.564 25.778C121.857 25.8073 122.158 25.822 122.466 25.822C123.551 25.822 124.307 25.6093 124.732 25.184C125.172 24.744 125.392 23.9887 125.392 22.918C125.392 21.95 125.238 21.2387 124.93 20.784C124.637 20.3293 124.175 20.102 123.544 20.102C123.207 20.102 122.869 20.1973 122.532 20.388C122.195 20.564 121.916 20.7987 121.696 21.092H119.342V11.94H127.768V14.294H122.07V18.166H122.158C122.495 18.0193 122.84 17.9093 123.192 17.836C123.544 17.748 123.903 17.704 124.27 17.704C125.531 17.704 126.499 18.1513 127.174 19.046C127.849 19.9407 128.186 21.2313 128.186 22.918C128.186 24.766 127.753 26.1153 126.888 26.966C126.037 27.802 124.747 28.22 123.016 28.22Z" fill="white"/>
<path d="M141.43 26.46C142.574 25.14 143.542 23.9813 144.334 22.984C145.126 21.972 145.757 21.0773 146.226 20.3C146.71 19.508 147.055 18.7893 147.26 18.144C147.48 17.484 147.59 16.846 147.59 16.23C147.59 15.2327 147.37 14.4993 146.93 14.03C146.49 13.546 145.808 13.304 144.884 13.304C144.327 13.304 143.769 13.37 143.212 13.502C142.655 13.634 142.061 13.8467 141.43 14.14V12.49C142.559 11.9767 143.828 11.72 145.236 11.72C146.673 11.72 147.729 12.072 148.404 12.776C149.093 13.48 149.438 14.5727 149.438 16.054C149.438 16.7433 149.335 17.4547 149.13 18.188C148.925 18.9213 148.595 19.6987 148.14 20.52C147.7 21.3413 147.121 22.236 146.402 23.204C145.683 24.1573 144.818 25.2133 143.806 26.372V26.46H149.57V28H141.43V26.46ZM156.5 21.048C156.031 21.048 155.657 20.9087 155.378 20.63C155.099 20.3513 154.96 19.9847 154.96 19.53C154.96 19.0607 155.099 18.694 155.378 18.43C155.657 18.1513 156.031 18.012 156.5 18.012C156.969 18.012 157.343 18.1513 157.622 18.43C157.901 18.694 158.04 19.0607 158.04 19.53C158.04 19.9847 157.901 20.3513 157.622 20.63C157.343 20.9087 156.969 21.048 156.5 21.048ZM156.5 28.22C155.371 28.22 154.469 27.978 153.794 27.494C153.119 26.9953 152.628 26.1887 152.32 25.074C152.027 23.9593 151.88 22.478 151.88 20.63V19.31C151.88 17.4473 152.027 15.966 152.32 14.866C152.628 13.7513 153.119 12.952 153.794 12.468C154.469 11.9693 155.371 11.72 156.5 11.72C157.629 11.72 158.531 11.9693 159.206 12.468C159.881 12.952 160.365 13.7513 160.658 14.866C160.966 15.966 161.12 17.4473 161.12 19.31V20.63C161.12 22.478 160.966 23.9593 160.658 25.074C160.365 26.1887 159.881 26.9953 159.206 27.494C158.531 27.978 157.629 28.22 156.5 28.22ZM156.5 26.636C157.233 26.636 157.798 26.46 158.194 26.108C158.605 25.7413 158.891 25.118 159.052 24.238C159.228 23.3433 159.316 22.104 159.316 20.52V19.42C159.316 17.836 159.228 16.604 159.052 15.724C158.891 14.8293 158.605 14.206 158.194 13.854C157.798 13.4873 157.233 13.304 156.5 13.304C155.781 13.304 155.217 13.4873 154.806 13.854C154.395 14.206 154.102 14.8293 153.926 15.724C153.765 16.604 153.684 17.836 153.684 19.42V20.52C153.684 22.104 153.765 23.3433 153.926 24.238C154.102 25.118 154.395 25.7413 154.806 26.108C155.217 26.46 155.781 26.636 156.5 26.636ZM163.43 26.46C164.574 25.14 165.542 23.9813 166.334 22.984C167.126 21.972 167.757 21.0773 168.226 20.3C168.71 19.508 169.055 18.7893 169.26 18.144C169.48 17.484 169.59 16.846 169.59 16.23C169.59 15.2327 169.37 14.4993 168.93 14.03C168.49 13.546 167.808 13.304 166.884 13.304C166.327 13.304 165.769 13.37 165.212 13.502C164.655 13.634 164.061 13.8467 163.43 14.14V12.49C164.559 11.9767 165.828 11.72 167.236 11.72C168.673 11.72 169.729 12.072 170.404 12.776C171.093 13.48 171.438 14.5727 171.438 16.054C171.438 16.7433 171.335 17.4547 171.13 18.188C170.925 18.9213 170.595 19.6987 170.14 20.52C169.7 21.3413 169.121 22.236 168.402 23.204C167.683 24.1573 166.818 25.2133 165.806 26.372V26.46H171.57V28H163.43V26.46ZM174.43 26.46C175.574 25.14 176.542 23.9813 177.334 22.984C178.126 21.972 178.757 21.0773 179.226 20.3C179.71 19.508 180.055 18.7893 180.26 18.144C180.48 17.484 180.59 16.846 180.59 16.23C180.59 15.2327 180.37 14.4993 179.93 14.03C179.49 13.546 178.808 13.304 177.884 13.304C177.327 13.304 176.769 13.37 176.212 13.502C175.655 13.634 175.061 13.8467 174.43 14.14V12.49C175.559 11.9767 176.828 11.72 178.236 11.72C179.673 11.72 180.729 12.072 181.404 12.776C182.093 13.48 182.438 14.5727 182.438 16.054C182.438 16.7433 182.335 17.4547 182.13 18.188C181.925 18.9213 181.595 19.6987 181.14 20.52C180.7 21.3413 180.121 22.236 179.402 23.204C178.683 24.1573 177.818 25.2133 176.806 26.372V26.46H182.57V28H174.43V26.46Z" fill="#8F8F8F"/>
</g>
<defs>
<clipPath id="clip0_1_2">
<rect width="201" height="87" fill="white"/>
</clipPath>
</defs>
</svg>
